<?xml version="1.0" encoding="UTF-8"?>
<svg width="80px" height="102px" viewBox="0 0 80 102" version="1.1" xmlns="http://www.w3.org/2000/svg" xmlns:xlink="http://www.w3.org/1999/xlink">
    <!-- Generator: sketchtool 54.1 (76490) - https://sketchapp.com -->
    <title>E76BBB51-E340-43A6-807E-D0863742E9E7</title>
    <desc>Created with sketchtool.</desc>
    <defs>
        <polygon id="path-1" points="0 0.100852082 16.442396 0.100852082 16.442396 20.1999219 0 20.1999219"></polygon>
        <polygon id="path-3" points="0.303956252 0.300602258 19.0656328 0.300602258 19.0656328 19.04 0.303956252 19.04"></polygon>
        <polygon id="path-5" points="0.0968237168 0.0126040157 13.3859091 0.0126040157 13.3859091 16.0443293 0.0968237168 16.0443293"></polygon>
    </defs>
    <g id="Page-1" stroke="none" stroke-width="1" fill="none" fill-rule="evenodd">
        <g id="3-Botanas_Barcel" transform="translate(-95.000000, -30.000000)">
            <g id="logo_barcel" transform="translate(95.000000, 30.000000)">
                <polygon id="Fill-1" fill="#E1251B" points="15.2775 76.6965653 46.0365909 68.563312 32.9629545 3.73029867 15.3202273 2.84629867 0.175681818 2.08696533"></polygon>
                <polygon id="Fill-2" fill="#A00000" points="25.2786818 -9.06666667e-05 46.5173182 71.6392693 68.1791364 65.8415893 79.5991364 2.52996267 25.2873182 -9.06666667e-05"></polygon>
                <g id="Group-30" transform="translate(0.000000, 7.906133)">
                    <path d="M32.2625,9.87622933 C31.9856818,15.103616 31.6479545,22.6117227 31.3243182,32.5936693 L30.9738636,44.7987627 C30.9225,46.724976 30.8729545,48.7210027 30.8265909,50.7841227 C30.7711364,50.825376 30.7311364,50.8734293 30.6884091,50.951856 C30.8206818,51.2261227 30.5079545,51.2039093 30.5811364,51.4287627 C30.4384091,51.474096 30.5538636,51.6608693 30.5206818,51.781456 C30.6943182,51.869856 30.5779545,52.212576 30.7061364,52.397536 L30.7861364,52.8445227 C30.7434091,52.8250293 30.7311364,52.870816 30.7143182,52.8957493 L30.7275,53.0099893 C30.5538636,52.9574027 30.5729545,53.1614027 30.5025,53.2090027 C30.5729545,53.2838027 30.6502273,53.224416 30.7434091,53.205376 C30.7311364,53.2430027 30.7552273,53.272016 30.7711364,53.288336 C30.7625,53.892176 30.7497727,54.4991893 30.7356818,55.117536 C30.6606818,55.2594293 30.5597727,55.3967893 30.3152273,55.3927093 L30.3261364,55.511936 C30.2870455,55.5196427 30.2734091,55.540496 30.2588636,55.566336 C30.2120455,55.873696 29.8288636,56.061376 30.0679545,56.4371893 C30.2511364,56.4902293 30.2102273,57.0360427 30.5538636,56.7327627 C30.6065909,56.6969493 30.6502273,56.6561493 30.7061364,56.6262293 C30.7020455,56.7091893 30.7002273,56.7939627 30.7002273,56.8723893 C30.5820455,56.8968693 30.4925,56.949456 30.4706818,57.0890827 C30.4365909,57.3366027 30.0620455,57.4290827 30.2215909,57.796736 C30.1965909,57.9059893 30.0111364,57.9345493 30.0993182,58.0805227 C29.9529545,58.1235893 30.0679545,58.3035627 30.0575,58.430496 C30.0325,58.737856 30.4252273,58.4459093 30.4706818,58.6784693 L30.4861364,58.853456 C30.3365909,58.899696 30.4506818,59.0787627 30.4384091,59.202976 C30.4643182,59.261456 30.5315909,59.2075093 30.5206818,59.3108693 C30.5893182,59.432816 30.4252273,59.4645493 30.4115909,59.5298293 L30.3456818,59.5438827 C30.1884091,59.468176 29.9752273,59.5053493 29.8675,59.3448693 C29.8311364,59.173056 29.8584091,59.0864693 29.9452273,58.9903627 C30.0725,58.9726827 30.0834091,58.8892693 30.1311364,58.778656 C29.9425,58.7727627 29.8193182,58.5995893 29.6511364,58.584176 L29.6502273,58.5442827 C29.4970455,58.491696 29.3411364,58.562416 29.1943182,58.584176 C29.2320455,58.222416 28.8784091,58.3239627 28.9047727,57.996656 L28.9365909,57.9894027 L28.9125,57.2572693 C28.9438636,57.248656 28.9588636,57.2305227 28.9711364,57.1838293 L28.9615909,57.0659627 C29.0247727,57.0750293 29.0365909,57.0333227 29.0506818,57.010656 C28.9615909,56.8823627 29.1311364,56.854256 29.1470455,56.7939627 C29.2229545,56.6561493 29.4238636,56.6996693 29.4656818,56.507456 C29.3802273,56.444896 29.3588636,56.3682827 29.3638636,56.2486027 C29.5202273,56.2798827 29.4970455,56.104896 29.5656818,56.0305493 C29.6211364,55.838336 29.4415909,55.856016 29.3938636,55.783936 L29.3265909,55.794816 C29.2243182,55.4797493 29.0506818,55.241296 28.7911364,55.125696 C28.7761364,54.9484427 28.7447727,54.8138027 28.8825,54.7349227 C29.1784091,54.5563093 29.2284091,54.9085493 29.4506818,54.743536 L29.3638636,54.6433493 C29.4120455,54.4778827 29.6352273,54.5363627 29.7756818,54.4887627 C29.7638636,54.5268427 29.7988636,54.544976 29.8211364,54.559936 L29.9288636,54.5390827 C29.8861364,54.708176 30.0520455,54.6941227 30.1415909,54.660576 C30.1806818,54.6587627 30.2715909,54.6746293 30.2852273,54.5971093 C30.1193182,54.4479627 29.8584091,54.3727093 29.7815909,54.142416 C29.6725,54.1610027 29.6725,53.966976 29.5379545,54.0698827 C29.5497727,53.9891893 29.4747727,53.987376 29.4220455,54.0086827 L29.3147727,54.0304427 C29.3025,53.952016 29.2525,53.943856 29.1943182,53.952016 L29.0779545,53.9728693 C29.0861364,53.9311627 29.0447727,53.9175627 29.0284091,53.9021493 C28.8961364,53.8862827 28.7447727,53.7947093 28.6629545,53.6886293 C28.7143182,53.473296 28.5561364,53.5082027 28.4929545,53.4157227 C28.5629545,53.3826293 28.5261364,53.2307627 28.6770455,53.2615893 C28.7502273,53.0684693 28.5629545,52.783776 28.8061364,52.6772427 L28.7975,52.5589227 C28.8347727,52.5711627 28.8484091,52.533536 28.8643182,52.5099627 L28.8552273,52.3857493 C28.8943182,52.382576 28.9079545,52.3558293 28.9243182,52.3381493 L28.9125,52.1967093 C29.0506818,52.152736 28.9438636,51.9686827 28.9697727,51.865776 C28.7011364,51.6939627 28.7697727,51.2179627 28.5134091,51.0629227 L28.5065909,50.9269227 C28.5406818,50.934176 28.5602273,50.896096 28.5679545,50.8734293 C28.5215909,50.741056 28.6815909,50.656736 28.7252273,50.5624427 C28.7579545,50.5579093 28.8347727,50.547936 28.8484091,50.5026027 C28.9697727,50.443216 29.1293182,50.3294293 29.2870455,50.2383093 C29.2720455,50.1227093 29.1552273,50.2083893 29.1784091,50.0633227 C29.2575,49.9599627 29.3265909,49.8942293 29.3879545,49.7990293 C29.3025,49.655776 29.1488636,49.583696 28.9856818,49.5515093 C28.9143182,49.387856 28.7447727,49.3207627 28.7911364,49.0292693 C28.8484091,49.036976 28.8552273,48.960816 28.8529545,48.9018827 C28.8865909,48.688816 28.6925,48.7631627 28.7447727,48.531056 C28.8111364,48.4431093 28.9856818,48.3674027 28.9338636,48.158416 L28.7779545,48.072736 C28.8111364,48.038736 28.8720455,47.9290293 28.8252273,47.8560427 C29.0565909,47.739536 29.2079545,47.5468693 29.3175,47.345136 L29.2902273,47.089456 C29.4893182,46.994256 29.4356818,47.6384427 29.3506818,47.2685227 C29.3265909,47.2168427 28.9965909,47.440336 28.9365909,47.414496 C28.7661364,47.512416 28.9365909,47.162896 29.3606818,46.8804693 C29.3588636,46.799776 29.2870455,46.788896 29.2320455,46.817456 L29.1275,46.8387627 C29.1406818,46.799776 29.0979545,46.7666827 29.0820455,46.7490027 C28.9588636,46.851456 28.9438636,46.667856 28.8706818,46.667856 C28.8643182,46.584896 28.8943182,46.5042027 28.8197727,46.4742827 L28.7106818,46.4946827 L28.6925,46.359136 C28.8784091,46.3246827 29.0820455,46.330576 29.2165909,46.223136 L29.2061364,46.102096 C29.2797727,46.1030027 29.2870455,46.0254827 29.2870455,45.9733493 C29.2575,45.917136 29.2870455,45.8269227 29.2284091,45.7970027 C29.0284091,45.793376 29.0506818,46.034096 28.9047727,46.0390827 C28.9006818,45.9942027 28.8825,45.981056 28.8643182,45.966096 L28.7402273,45.986496 C28.7502273,45.921216 28.7120455,45.917136 28.6925,45.894016 L28.5861364,45.917136 C28.5647727,45.7181227 28.4397727,45.7027093 28.4693182,45.4760427 C28.5065909,45.4864693 28.5215909,45.4461227 28.5393182,45.420736 L28.5261364,45.301056 C28.5647727,45.3169227 28.5861364,45.275216 28.5965909,45.248016 L28.5884091,45.1333227 L28.6202273,45.1274293 C28.6629545,44.9737493 28.6488636,44.7792693 28.5861364,44.6731893 L28.5406818,44.6790827 C28.4761364,44.531296 28.6202273,44.5208693 28.6338636,44.4460693 C28.6729545,44.4338293 28.7447727,44.4460693 28.7579545,44.380336 C28.6538636,44.2982827 28.5993182,44.123296 28.4279545,44.1767893 L28.4020455,43.9007093 C28.4715909,43.8884693 28.4838636,43.8286293 28.4597727,43.7706027 L28.4479545,43.6346027 C28.5215909,43.6373227 28.5325,43.5584427 28.5134091,43.5013227 L28.5029545,43.3866293 C28.5347727,43.371216 28.5561364,43.3567093 28.5679545,43.327696 C28.5743182,43.0280427 28.2025,43.1599627 28.2638636,42.7859627 L28.2279545,42.7886827 C28.3652273,42.7202293 28.2461364,42.5466027 28.2638636,42.4033493 L28.3020455,42.392016 C28.3611364,42.2460427 28.3075,42.0728693 28.2938636,41.8938027 C28.3315909,41.903776 28.3475,41.8625227 28.3611364,41.8403093 L28.3534091,41.720176 C28.3893182,41.736496 28.4047727,41.6979627 28.4206818,41.6666827 L28.4079545,41.5483627 C28.5029545,41.358416 28.4570455,41.0805227 28.6629545,40.9445227 L28.2465909,40.5582827 C28.3115909,40.4639893 28.4279545,40.3855627 28.3747727,40.2137493 C28.2638636,39.965776 28.1720455,39.7463627 28.0788636,39.5029227 C28.1629545,39.4322027 28.1829545,39.2821493 28.3334091,39.2943893 L28.3352273,39.334736 C28.4479545,39.3805227 28.5884091,39.3070827 28.7206818,39.3070827 C28.5884091,39.031456 29.2870455,38.665616 28.6984091,38.6719627 C28.6893182,38.571776 28.5647727,38.6320693 28.6038636,38.4838293 C28.6488636,38.480656 28.6629545,38.4525493 28.6770455,38.4307893 C28.6629545,38.314736 28.5861364,38.3863627 28.5561364,38.2734827 C28.4456818,38.2947893 28.4929545,38.4239893 28.3611364,38.4076693 C28.3747727,38.3292427 28.2993182,38.3224427 28.2465909,38.3342293 L28.1165909,38.352816 C28.1334091,38.3115627 28.0702273,38.3029493 28.0525,38.2830027 C27.9265909,38.3600693 27.9365909,38.1986827 27.8679545,38.192336 C27.8629545,38.0649493 28.0629545,38.0214293 28.0011364,37.8287627 L28.0370455,37.8287627 C28.2188636,37.271616 27.7388636,37.2099627 27.8829545,36.5920693 C27.9184091,36.6074827 27.9365909,36.5639627 27.9543182,36.5449227 L27.8770455,36.4334027 C27.9129545,36.4510827 27.9297727,36.4048427 27.9461364,36.3853493 C28.0056818,36.062576 28.3893182,35.9895893 28.2993182,35.549856 C28.3352273,35.5589227 28.3534091,35.5167627 28.3729545,35.4990827 C28.4397727,35.305056 28.5743182,35.154096 28.4079545,34.992256 C28.4184091,34.7742027 28.1975,34.680816 28.2561364,34.3934027 C28.2679545,34.1930293 28.6565909,34.3875093 28.5215909,34.1418027 L28.4134091,34.1540427 C28.3534091,33.980416 28.1993182,33.885216 28.2325,33.640416 C28.2638636,33.640416 28.2843182,33.6177493 28.2993182,33.591456 L28.2993182,33.554736 C28.1470455,33.4536427 27.8156818,33.674416 27.7629545,33.4382293 C27.7047727,33.309936 27.8334091,33.2723093 27.8679545,33.1907093 C27.9579545,33.1825493 28.1047727,33.1825493 28.0629545,33.050176 C28.0465909,32.9894293 28.0720455,32.9064693 28.0175,32.8724693 L27.9802273,32.874736 C27.9579545,32.662576 28.2920455,32.778176 28.2638636,32.563296 C28.0806818,32.5868693 28.0011364,32.398736 27.9620455,32.258656 C28.0475,32.0990827 28.0370455,31.8334293 28.1993182,31.739136 C28.2638636,31.6267093 28.2279545,31.5102027 28.2211364,31.3941493 C28.2938636,31.3878027 28.3075,31.322976 28.3075,31.2640427 L28.3020455,31.1280427 C28.3415909,31.1443627 28.3593182,31.104016 28.3747727,31.0745493 C28.2843182,31.0133493 28.2561364,30.811616 28.0525,30.8773493 C28.0702273,30.834736 28.1788636,30.8220427 28.1629545,30.8052693 C28.0311364,30.8773493 28.0270455,30.7023627 27.9543182,30.685136 C27.9543182,30.651136 27.6238636,21.0436427 27.6238636,21.0436427 C27.7106818,20.864576 27.6238636,19.6020427 27.6238636,19.6020427 C27.6397727,19.5598827 27.6084091,19.538576 27.5947727,19.524976 C27.4561364,19.582096 27.4702273,19.4225227 27.4229545,19.408016 C27.4329545,19.1881493 27.3511364,19.0893227 27.2884091,18.955136 C27.2847727,18.7724427 27.5011364,18.7724427 27.4811364,18.5720693 C27.4811364,18.5720693 27.5561364,18.294176 27.5861364,18.1640693 C27.4811364,18.0811093 27.3284091,17.1971093 27.4634091,17.094656 C27.5561364,17.094656 27.6970455,17.1105227 27.6729545,16.9495893 C27.6338636,16.7555627 27.4811364,16.6399627 27.5570455,16.338496 C27.6315909,16.338496 27.6552273,16.282736 27.6579545,16.2238027 C27.7284091,16.0438293 27.5606818,16.0483627 27.5129545,15.9676693 L27.4365909,15.9676693 C27.4634091,15.8887893 27.3893182,15.8647627 27.3375,15.8887893 L27.2265909,15.889696 C27.2034091,15.689776 27.3161364,15.4127893 27.1006818,15.3969227 C26.9820455,15.4540427 27.2547727,15.020656 27.3025,14.8606293 C27.3025,14.8606293 27.5561364,14.4707627 27.5129545,14.484816 L27.4125,14.484816 C27.4125,14.4408427 27.3893182,14.423616 27.3765909,14.408656 C27.2329545,14.3465493 27.0975,14.2463627 27.0465909,14.1085493 C27.3570455,14.1874293 27.1338636,13.258096 27.0393182,13.2422293 L27.0465909,13.1216427 C27.1770455,13.104416 27.1020455,12.903136 27.1561364,12.784816 C27.0911364,12.6071093 27.0152273,12.4321227 26.9538636,12.2526027 C26.9670455,12.0717227 27.2247727,12.0526827 27.1561364,11.796096 L27.1838636,11.796096 L27.0784091,9.98412267 C27.1284091,10.0140427 27.0002273,9.66452267 27.0034091,9.607856 L27.0161364,9.46414933 C27.1475,9.426976 27.2384091,8.63772267 27.1602273,8.556576 L27.1756818,8.324016 C27.3275,8.29862933 27.1043182,8.099616 27.1338636,7.982656 L27.1661364,7.982656 C27.2525,7.86342933 27.2070455,7.826256 27.2188636,7.68390933 L27.1338636,7.317616 C27.2384091,7.177536 26.8338636,6.443136 27.0034091,6.46036267 C27.0152273,6.40188267 27.0529545,6.32436267 26.9779545,6.282656 L26.9479545,6.282656 C26.9479545,6.282656 27.0911364,5.90548267 27.0152273,5.86740267 C27.0152273,5.86740267 27.0393182,6.084096 27.0570455,6.00612267 C26.9670455,5.788976 26.9538636,5.52740267 26.8984091,5.29302933 C27.0911364,5.17470933 26.9506818,5.261296 26.9370455,4.94804267 C26.8493182,4.66878933 26.8984091,4.57404267 26.8306818,4.29796267 C26.8788636,4.181456 26.7002273,2.66324267 26.6897727,2.32414933 L32.6697727,1.747056 L32.2625,9.87622933" id="Fill-3" fill="#0056A3"></path>
                    <path d="M26.3179545,13.7794293 C26.3075,13.817056 26.3038636,13.848336 26.3038636,13.8664693 L26.3588636,13.8315627 C26.3443182,13.814336 26.3306818,13.7975627 26.3179545,13.7794293 L26.3179545,13.7794293 Z M28.1075,15.304896 C28.1811364,15.363376 28.2429545,15.432736 28.2888636,15.5093493 C28.2279545,15.4073493 28.1556818,15.338896 28.1056818,15.2990027 C28.1065909,15.300816 28.1065909,15.3030827 28.1075,15.304896 L28.1075,15.304896 Z M26.5520455,16.069216 C26.5538636,16.0710293 26.5565909,16.073296 26.5588636,16.0764693 C26.5338636,15.9418293 26.5388636,15.802656 26.5852273,15.6698293 C26.5397727,15.798576 26.5302273,15.9368427 26.5520455,16.069216 L26.5520455,16.069216 Z M26.5670455,16.1403893 C26.5843182,16.2083893 26.6097727,16.2736693 26.6434091,16.337136 C26.6443182,16.3339627 26.6443182,16.3307893 26.6443182,16.327616 C26.6161364,16.269136 26.5920455,16.2083893 26.5747727,16.145376 C26.5720455,16.1431093 26.5702273,16.141296 26.5670455,16.1403893 L26.5670455,16.1403893 Z M28.6065909,40.8597493 C28.6443182,40.8692693 28.6825,40.882416 28.7193182,40.898736 C28.6802273,40.8815093 28.6425,40.867456 28.6043182,40.856576 L28.6065909,40.8597493 Z M29.5452273,44.9560693 C29.5725,44.9660427 29.5997727,44.9782827 29.6252273,44.990976 C29.8006818,45.076656 29.9556818,45.2511893 30.0552273,45.4461227 C30.0611364,45.2217227 30.0670455,44.9982293 30.0734091,44.7742827 L30.4234091,32.5682827 C30.7697727,21.8705227 31.1252273,14.299856 31.3625,9.830896 L31.7179545,2.74212267 L27.6634091,3.13334933 C27.7175,3.70908267 27.7434091,4.02958933 27.7393182,4.24174933 C27.7593182,4.35190933 27.7661364,4.44212267 27.7734091,4.529616 C27.7975,4.60532267 27.8347727,4.83198933 27.8388636,4.91086933 C27.9234091,5.09446933 27.9175,5.29574933 27.8493182,5.482976 C27.8515909,5.49158933 27.8525,5.50110933 27.8543182,5.50972267 C27.8852273,5.58044267 27.9097727,5.661136 27.9225,5.752256 C27.9656818,5.89958933 27.9706818,6.05644267 27.9352273,6.20740267 C27.9275,6.24638933 27.9156818,6.28310933 27.9025,6.319376 C27.9115909,6.398256 27.9115909,6.475776 27.9025,6.55102933 C27.9825,6.799456 28.0497727,7.04108267 28.0484091,7.27364267 L28.0965909,7.48126933 C28.1179545,7.571936 28.1243182,7.665776 28.1170455,7.759616 C28.1229545,7.84076267 28.1229545,7.93732267 28.1029545,8.04702933 C28.1379545,8.194816 28.1488636,8.374336 28.0838636,8.570176 C28.1229545,8.907456 28.0543182,9.26196267 27.9911364,9.49950933 C27.9765909,9.552096 27.9606818,9.60332267 27.9434091,9.651376 C27.9688636,9.75292267 27.9925,9.890736 27.9847727,10.0394293 L28.0838636,11.7439627 C28.0884091,11.8282827 28.0820455,11.9107893 28.0638636,11.991936 C28.0515909,12.108896 28.0197727,12.2322027 27.9575,12.3595893 L28.0038636,12.4797227 C28.0638636,12.647456 28.0725,12.8265227 28.0315909,12.996976 C28.0279545,13.067696 28.0184091,13.134336 28.0056818,13.1964427 C28.0525,13.3523893 28.1029545,13.5758827 28.1075,13.8152427 C28.1529545,13.8506027 28.1929545,13.8886827 28.2261364,13.929936 C28.6156818,14.4240693 28.3529545,14.8923627 28.1056818,15.277696 C28.1052273,15.2799627 28.1038636,15.281776 28.1029545,15.2849493 C28.1038636,15.2876693 28.1052273,15.2908427 28.1052273,15.294016 C28.6211364,15.6444427 28.6411364,16.1839093 28.4984091,16.550656 L28.4929545,16.5488427 C28.4911364,16.553376 28.4888636,16.557456 28.4870455,16.5624427 C28.5129545,16.6014293 28.5384091,16.6803093 28.5575,16.7718827 C28.6102273,17.037536 28.5215909,17.4138027 28.3470455,17.6286827 C28.3529545,17.6595093 28.3597727,17.688976 28.3661364,17.7143627 C28.4793182,17.9083893 28.5175,18.1400427 28.4643182,18.366256 L28.3811364,18.6935627 C28.3729545,18.7942027 28.3502273,18.891216 28.3138636,18.9841493 C28.4288636,19.138736 28.5011364,19.341376 28.5161364,19.5408427 L28.5229545,19.5408427 C28.5861364,20.4561227 28.5693182,20.8963093 28.5293182,21.139296 C28.7375,27.1990027 28.8134091,29.4035627 28.8406818,30.2114027 C28.8756818,30.2508427 28.9075,30.2939093 28.9347727,30.3392427 C28.9647727,30.3732427 28.9938636,30.4099627 29.0229545,30.449856 C29.2934091,30.7282027 29.3588636,31.1575093 29.1638636,31.5088427 C29.1561364,31.5238027 29.1470455,31.5396693 29.1370455,31.5546293 C29.1397727,31.7042293 29.1206818,31.892816 29.0306818,32.090016 C29.0965909,32.197456 29.1411364,32.3194027 29.1579545,32.4472427 C29.1829545,32.6358293 29.1561364,32.8561493 29.0511364,33.058336 C29.1479545,33.203856 29.2011364,33.3756693 29.2011364,33.5551893 L29.2011364,33.5619893 C29.2447727,33.6073227 29.2820455,33.6558293 29.3111364,33.709776 C29.4584091,33.976336 29.4834091,34.4065493 29.3379545,34.674016 C29.3279545,34.693056 29.3161364,34.712096 29.3038636,34.729776 C29.4111364,34.9836427 29.4352273,35.315936 29.2479545,35.7379893 C29.2384091,35.7611093 29.2238636,35.7901227 29.2079545,35.8209493 C29.1638636,36.2439093 28.9329545,36.516816 28.8134091,36.654176 C28.8093182,36.7185493 28.7997727,36.7815627 28.7847727,36.8409493 C28.8588636,36.9946293 28.9515909,37.206336 28.9738636,37.476976 C29.0756818,37.530016 29.1670455,37.6016427 29.2415909,37.6895893 C29.3438636,37.7784427 29.4265909,37.8872427 29.4843182,38.0110027 C29.5997727,38.103936 29.6775,38.212736 29.7306818,38.3124693 C29.9815909,38.7925493 29.7465909,39.2118827 29.6165909,39.4022827 C29.6025,39.537376 29.5575,39.6688427 29.4834091,39.786256 C29.4202273,39.885536 29.3411364,39.9694027 29.2488636,40.0360427 C29.2670455,40.1244427 29.2770455,40.207856 29.2793182,40.2885493 C29.4793182,40.4766827 29.5834091,40.745056 29.5606818,41.018416 C29.5452273,41.2056427 29.4711364,41.3806293 29.3534091,41.521616 C29.3388636,41.5873493 29.3243182,41.6526293 29.3052273,41.716096 C29.2952273,41.8475627 29.2679545,41.9835627 29.2225,42.079216 C29.2343182,42.236976 29.2329545,42.402896 29.1875,42.5774293 C29.4220455,42.8358293 29.4743182,43.123696 29.4693182,43.3458293 C29.4684091,43.426976 29.4552273,43.5076693 29.4320455,43.5842827 C29.4293182,43.6395893 29.4211364,43.6958027 29.4084091,43.7524693 C29.6484091,43.9610027 29.7084091,44.2461493 29.6402273,44.566656 C29.6220455,44.6518827 29.5884091,44.7348427 29.5415909,44.8119093 C29.5443182,44.8613227 29.5461364,44.9089227 29.5452273,44.9560693 L29.5452273,44.9560693 Z M27.9956818,47.6461493 C27.9488636,47.757216 27.9347727,47.8737227 27.9443182,47.9866027 C27.9465909,47.872816 27.9615909,47.759936 27.9993182,47.6583893 C27.9984091,47.653856 27.9965909,47.6502293 27.9956818,47.6461493 L27.9956818,47.6461493 Z M29.7506818,48.9059627 C29.8325,48.9617227 29.9038636,49.022016 29.9638636,49.0823093 C29.9729545,48.7409493 29.9806818,48.4014027 29.9888636,48.0641227 C29.9456818,48.1003893 29.8988636,48.1334827 29.8497727,48.161136 C29.8479545,48.1629493 29.8456818,48.1661227 29.8438636,48.1683893 C29.8538636,48.337936 29.8279545,48.529696 29.7297727,48.726896 C29.7415909,48.788096 29.7488636,48.8488427 29.7506818,48.9059627 L29.7506818,48.9059627 Z M29.6093182,51.2315627 C29.6211364,51.2447093 29.6343182,51.2574027 29.6452273,51.2710027 C29.6593182,51.2175093 29.6765909,51.1676427 29.6961364,51.1214027 C29.7047727,51.0896693 29.7147727,51.0570293 29.7256818,51.0243893 C29.6697727,51.0602027 29.6197727,51.0910293 29.5752273,51.117776 C29.5843182,51.1454293 29.5925,51.170816 29.5997727,51.1948427 C29.6052273,51.2138827 29.6084091,51.2256693 29.6093182,51.2315627 L29.6093182,51.2315627 Z M28.2070455,51.6735627 L28.2225,51.6776427 C28.2720455,51.6037493 28.3293182,51.536656 28.3929545,51.4818027 L28.3961364,51.467296 C28.3188636,51.525776 28.2561364,51.596496 28.2070455,51.6735627 L28.2070455,51.6735627 Z M29.7275,52.696736 C29.7215909,52.7275627 29.7138636,52.7588427 29.7056818,52.7874027 C29.7193182,52.762016 29.7352273,52.7357227 29.7520455,52.711696 C29.7711364,52.6718027 29.7906818,52.6346293 29.8115909,52.600176 C29.8038636,52.574336 29.7956818,52.5480427 29.7888636,52.5222027 C29.7829545,52.536256 29.7756818,52.5503093 29.7688636,52.5630027 C29.7565909,52.6092427 29.7434091,52.6536693 29.7275,52.696736 L29.7275,52.696736 Z M29.5956818,53.1002027 C29.5997727,53.1011093 29.6034091,53.102016 29.6075,53.102016 C29.6125,53.062576 29.6197727,53.0222293 29.6293182,52.9832427 C29.6211364,52.997296 29.6138636,53.010896 29.6043182,53.023136 C29.6015909,53.0281227 29.5975,53.0331093 29.5947727,53.0385493 C29.5947727,53.0385493 29.5934091,53.0403627 29.5925,53.0412693 C29.5947727,53.0603093 29.5947727,53.080256 29.5956818,53.1002027 L29.5956818,53.1002027 Z M30.8775,53.8695093 L30.8788636,53.8735893 C30.8997727,53.867696 30.9197727,53.8613493 30.9397727,53.8550027 L30.9379545,53.8518293 C30.9179545,53.8577227 30.8979545,53.8645227 30.8775,53.8695093 L30.8775,53.8695093 Z M28.4634091,56.2155093 C28.4425,56.2390827 28.4193182,56.2671893 28.3970455,56.2989227 C28.4161364,56.273536 28.4379545,56.246336 28.4634091,56.2195893 L28.4634091,56.2155093 Z M28.4643182,56.3460693 C28.3938636,56.400016 28.3329545,56.465296 28.2852273,56.5391893 C28.3043182,56.5147093 28.3261364,56.4915893 28.3479545,56.470736 C28.3852273,56.4358293 28.4243182,56.4031893 28.4652273,56.3719093 C28.4652273,56.363296 28.4643182,56.355136 28.4643182,56.3460693 L28.4643182,56.3460693 Z M30.9556818,58.4150827 L30.9570455,58.418256 C30.9556818,58.4042027 30.9547727,58.3874293 30.9529545,58.3715627 C30.9538636,58.3874293 30.9547727,58.4014827 30.9556818,58.4150827 L30.9556818,58.4150827 Z M28.3111364,58.6626027 C28.3347727,58.7605227 28.3843182,58.853456 28.4411364,58.924176 C28.3820455,58.8416693 28.3347727,58.7546293 28.3111364,58.6626027 L28.3111364,58.6626027 Z M30.3643182,60.432416 C30.2225,60.432416 30.0734091,60.4088427 29.9597727,60.354896 C29.8102273,60.338576 29.3938636,60.2578827 29.1165909,59.8417227 C29.0547727,59.7478827 29.0097727,59.6440693 28.9870455,59.533456 C28.9738636,59.4740693 28.9647727,59.415136 28.9584091,59.3584693 C28.8565909,59.321296 28.7656818,59.2718827 28.6975,59.2066027 C28.6202273,59.1340693 28.5406818,59.052016 28.4711364,58.9640693 C28.1256818,58.6857227 27.9725,58.339376 28.0056818,57.925936 C28.0097727,57.878336 28.0175,57.832096 28.0279545,57.7876693 L28.0115909,57.286736 C28.0056818,57.107216 28.0534091,56.9363093 28.1429545,56.790336 C28.1647727,56.7323093 28.1906818,56.677456 28.2225,56.6266827 C28.2743182,56.4675627 28.3547727,56.321136 28.4634091,56.2105227 C28.4652273,56.170176 28.4688636,56.1325493 28.4761364,56.0944693 C28.4734091,56.0867627 28.4711364,56.0786027 28.4679545,56.0713493 C28.1675,55.937616 27.9202273,55.528256 27.8938636,55.2023093 C27.8588636,54.8478027 27.9075,54.5631093 28.0365909,54.339616 C28.0047727,54.305616 27.9743182,54.2711627 27.9465909,54.234896 C27.8938636,54.1650827 27.8506818,54.088016 27.8206818,54.0086827 C27.7902273,53.9774027 27.7652273,53.9474827 27.7461364,53.919376 C27.5993182,53.7022293 27.5543182,53.431136 27.6243182,53.178176 C27.6520455,53.0743627 27.6993182,52.9773493 27.7606818,52.8916693 C27.7684091,52.8771627 27.7761364,52.8635627 27.7843182,52.8495093 C27.8006818,52.551216 27.8947727,52.3354293 28.0156818,52.1794827 C28.0215909,52.1627093 28.0279545,52.1450293 28.0343182,52.1278027 C27.9515909,51.9709493 27.9056818,51.8213493 27.8734091,51.714816 C27.8706818,51.703936 27.8706818,51.698496 27.8747727,51.698496 L27.8756818,51.698496 C27.7184091,51.5416427 27.6225,51.3290293 27.6125,51.102816 C27.6070455,50.9881227 27.6243182,50.8643627 27.6593182,50.745136 C27.6761364,50.5347893 27.7643182,50.296336 27.9888636,50.0497227 C28.0256818,49.969936 28.0684091,49.9078293 28.1170455,49.8588693 C28.0165909,49.729216 27.8375,49.4173227 27.8925,48.9517493 C27.8125,48.7250827 27.8261364,48.5056693 27.8643182,48.3347627 C27.8825,48.2558827 27.9106818,48.180176 27.9488636,48.108096 C27.9479545,48.0895093 27.9465909,48.0695627 27.9456818,48.0505227 C27.9147727,47.909536 27.9161364,47.7608427 27.9552273,47.6194027 C27.9615909,47.5971893 27.9688636,47.576336 27.9752273,47.5554827 C27.9465909,47.380496 27.9725,47.2082293 28.0397727,47.0409493 C27.9256818,46.919456 27.8375,46.7730293 27.8165909,46.612096 C27.8052273,46.5246027 27.8061364,46.4334827 27.8184091,46.341456 C27.7502273,46.2430827 27.7034091,46.1329227 27.6902273,46.0155093 C27.6634091,46.040896 27.5197727,45.7806827 27.5747727,45.3586293 C27.5925,45.2312427 27.6361364,45.112016 27.7015909,45.0050293 C27.6602273,44.894416 27.6443182,44.7643093 27.6502273,44.6314827 C27.5852273,44.5199627 27.5429545,44.3930293 27.5311364,44.260656 L27.5047727,43.984576 C27.4902273,43.8272693 27.5170455,43.6735893 27.5770455,43.5380427 C27.4297727,43.3422027 27.3729545,43.1341227 27.3597727,42.9527893 C27.3315909,42.8099893 27.3379545,42.6662827 27.3747727,42.533456 C27.3679545,42.435536 27.3638636,42.337616 27.3697727,42.2918293 C27.3811364,42.1984427 27.4065909,42.1095893 27.4447727,42.027536 L27.3947727,41.9586293 C27.3811364,41.765056 27.4297727,41.574656 27.5311364,41.414176 C27.5420455,41.325776 27.5611364,41.240096 27.5893182,41.1730027 C27.3506818,40.9195893 27.2829545,40.5555627 27.4043182,40.239136 C27.3506818,40.114016 27.2934091,39.972576 27.2356818,39.821616 C27.1243182,39.527856 27.1761364,39.2032693 27.3588636,38.9611893 C27.3197727,38.9271893 27.2815909,38.8882027 27.2456818,38.8433227 C27.0797727,38.686016 26.9743182,38.4647893 26.9665909,38.2204427 C26.9615909,38.0703893 27.0247727,37.8650293 27.1106818,37.693216 C27.1197727,37.633376 27.1347727,37.5758027 27.1547727,37.519136 C27.0334091,37.355936 26.8702273,36.9678827 27.0047727,36.3898827 C27.0175,36.3309493 27.0365909,36.2751893 27.0615909,36.2212427 L27.0597727,36.2212427 C27.1197727,35.895296 27.2847727,35.6740693 27.3993182,35.5380693 C27.4002273,35.3925493 27.4379545,35.249296 27.5079545,35.1205493 C27.4170455,34.944656 27.3047727,34.6640427 27.3588636,34.2927627 C26.9947727,34.0760693 26.8961364,33.6979893 26.8820455,33.634976 C26.8252273,33.3774827 26.9215909,32.9771893 27.0865909,32.734656 C27.0925,32.685696 27.1015909,32.6317493 27.1175,32.575536 C27.1097727,32.551056 27.1015909,32.5261227 27.0947727,32.4998293 C27.0325,32.277696 27.0575,32.0401493 27.1665909,31.837056 C27.1879545,31.7314293 27.2265909,31.567776 27.3188636,31.399136 C27.2711364,31.332496 27.2329545,31.2595093 27.2047727,31.1833493 C27.1125,31.045536 27.0588636,30.8818827 27.0534091,30.708256 C27.0484091,30.5228427 26.7229545,21.0749227 26.7229545,21.0749227 C26.7184091,20.9303093 26.7479545,20.7866027 26.8102273,20.656496 C26.8002273,20.5880427 26.7752273,20.2888427 26.7543182,20.034976 C26.7279545,19.9991627 26.7038636,19.9610827 26.6811364,19.9189227 C26.5720455,19.761616 26.5129545,19.569856 26.5220455,19.367216 C26.4688636,19.2534293 26.3888636,19.0956693 26.3865909,18.970096 C26.3815909,18.711696 26.4638636,18.4773227 26.6288636,18.2692427 L26.6393182,18.230256 C26.5038636,17.790976 26.5088636,17.327216 26.5088636,17.297296 C26.5129545,17.0629227 26.5602273,16.860736 26.6488636,16.6939093 C26.6411364,16.6413227 26.6361364,16.584656 26.6347727,16.5225493 C26.4720455,16.383376 26.3547727,16.2002293 26.3306818,15.9921493 C26.3275,15.9626827 26.3256818,15.9314027 26.3238636,15.8996693 C26.0165909,15.4635627 26.2425,14.9862027 26.3706818,14.7327893 C26.2997727,14.637136 26.2425,14.5328693 26.2015909,14.422256 C26.1093182,14.1765493 26.1315909,13.9063627 26.2534091,13.6819627 C26.1715909,13.5359893 26.1297727,13.3664427 26.1393182,13.1896427 C26.1465909,13.0776693 26.1734091,12.9634293 26.2175,12.854176 L26.1002273,12.5409227 C26.0620455,12.4294027 26.0475,12.310176 26.0556818,12.1923093 C26.0643182,12.0445227 26.1584091,11.8228427 26.2665909,11.6483093 C26.2679545,11.6406027 26.2693182,11.6324427 26.2706818,11.6242827 L26.1784091,10.036256 C26.1775,10.0244693 26.1775,10.0126827 26.1775,10.0004427 C26.1456818,9.85174933 26.1002273,9.62190933 26.1034091,9.56070933 C26.1115909,9.394336 26.1675,9.21300267 26.2588636,9.051616 L26.2470455,9.04526933 C26.2629545,8.99358933 26.2820455,8.863936 26.2870455,8.77780267 C26.2638636,8.687136 26.2543182,8.593296 26.2606818,8.498096 L26.2734091,8.303616 C26.2302273,8.15582933 26.2065909,7.97358933 26.2588636,7.76550933 C26.2679545,7.73196267 26.2775,7.698416 26.2893182,7.66804267 L26.2556818,7.520256 C26.2347727,7.43004267 26.2279545,7.33846933 26.2347727,7.24870933 C26.2229545,7.208816 26.2075,7.16756267 26.1934091,7.125856 C26.1284091,6.93318933 26.0429545,6.67932267 26.0652273,6.41502933 C26.0397727,6.266336 26.0502273,6.11174933 26.1043182,5.967136 L26.1075,5.967136 C26.0861364,5.87102933 26.0715909,5.78036267 26.0575,5.69830933 C26.0215909,5.54462933 26.0206818,5.35604267 26.0543182,5.17244267 C26.0515909,5.152496 26.0484091,5.13164267 26.0465909,5.110336 C25.9943182,4.91630933 25.9834091,4.773056 25.9752273,4.665616 C25.9470455,4.548656 25.9343182,4.369136 25.9461364,4.207296 L25.9375,4.205936 C25.9411364,4.03230933 25.8929545,3.56854933 25.8543182,3.15510933 C25.8220455,2.80558933 25.7934091,2.48734933 25.7893182,2.349536 C25.7752273,1.87716267 26.1315909,1.47460267 26.6034091,1.42926933 L32.5829545,0.852629333 C32.8461364,0.823162667 33.1025,0.915189333 33.2925,1.096976 C33.4820455,1.276496 33.5829545,1.53126933 33.5697727,1.79148267 L33.1625,9.92110933 L33.1625,9.923376 C32.9261364,14.3832693 32.5720455,21.9426027 32.2252273,32.6226827 L31.8747727,44.8241493 C31.8238636,46.7476427 31.7743182,48.741856 31.7275,50.8040693 C31.7247727,50.9550293 31.6843182,51.100096 31.6106818,51.227936 C31.5925,51.354416 31.5475,51.4899627 31.4643182,51.6268693 C31.5165909,51.7946027 31.5265909,51.9464693 31.5329545,52.026256 L31.5329545,52.0380427 C31.5606818,52.1019627 31.5815909,52.1699627 31.5934091,52.239776 L31.6738636,52.687216 C31.6988636,52.8254827 31.6906818,52.9664693 31.6515909,53.0970293 C31.6661364,53.1627627 31.6729545,53.231216 31.6715909,53.2996693 L31.6365909,55.1374827 C31.6334091,55.276656 31.5975,55.4135627 31.5329545,55.537776 C31.4506818,55.6919093 31.3575,55.8161227 31.2570455,55.9149493 C31.4925,56.095376 31.6247727,56.382336 31.6070455,56.680176 C31.5915909,56.9227093 31.4784091,57.229616 31.3047727,57.454016 C31.2561364,57.5877493 31.1861364,57.6983627 31.1220455,57.7835893 C31.1229545,57.8520427 31.1170455,57.9200427 31.1020455,57.9880427 C31.0997727,57.9943893 31.0988636,58.0002827 31.0975,58.006176 C31.2911364,58.216976 31.3461364,58.4613227 31.3552273,58.5089227 C31.3615909,58.537936 31.3815909,58.7414827 31.3843182,58.7714027 C31.3915909,58.8543627 31.3875,58.936416 31.3734091,59.015296 C31.4984091,59.3507627 31.4575,59.775536 31.1052273,60.1042027 C30.9761364,60.2601493 30.7947727,60.3707627 30.5884091,60.4115627 C30.5206818,60.425616 30.4434091,60.432416 30.3643182,60.432416 L30.3643182,60.432416 Z" id="Fill-5" fill="#0056A3"></path>
                    <path d="M52.5656818,20.95896 C50.4347727,20.4371733 44.7761364,21.58184 42.3670455,22.7627733 C43.3870455,22.0718933 44.2597727,21.2042133 45.4265909,20.5092533 C45.2856818,20.16336 44.8879545,19.20184 44.9138636,19.15832 L45.4265909,19.15832 C44.9443182,19.8201867 45.7943182,19.5386667 45.9365909,19.6112 C46.2252273,19.1206933 45.6952273,18.76664 45.9365909,18.2611733 C46.2252273,17.5712 46.8938636,17.6006667 47.4675,16.0135467 C49.2470455,10.9076533 47.8815909,10.25984 42.8784091,8.81869333 C42.8256818,8.86946667 42.3670455,9.71357333 42.3670455,9.71357333 C41.4425,9.84050667 40.8238636,8.81869333 40.8343182,8.81869333 C40.1484091,9.02450667 40.0120455,10.0930133 39.8147727,10.16464 C38.7179545,10.5028267 38.6688636,9.34592 37.2720455,9.71357333 L37.2720455,10.61208 C36.9361364,10.6673867 33.6911364,11.0617867 33.6911364,11.0617867 C33.5643182,11.1066667 32.8425,11.2272533 32.6697727,11.3691467 C31.8475,11.97344 31.1311364,12.7101067 30.1311364,13.3134933 C30.1311364,13.3134933 28.7502273,13.1693333 28.2579545,13.8144267 L28.2211364,13.77544 C28.2211364,13.77544 27.5115909,13.5709867 27.1215909,13.88016 C26.7288636,14.1906933 26.7684091,14.77232 26.5552273,15.14904 C26.5120455,15.22928 26.4925,15.3022667 26.4861364,15.3689067 L25.5179545,15.6332 C25.5688636,15.6332 24.4370455,15.86304 25.6570455,17.22848 C26.6165909,16.8322667 28.3743182,15.84944 29.2170455,15.7057333 C29.9615909,15.5642933 31.9611364,16.74432 32.6793182,16.4623467 C32.6943182,16.4487467 32.6793182,15.1685333 32.6793182,15.1127733 C33.0075,15.0438667 34.8602273,15.2261067 35.2261364,15.1127733 C35.7693182,14.9155733 37.2347727,13.4662667 37.7802273,13.3134933 C38.5875,13.0591733 39.3106818,13.76456 39.3106818,13.76456 C39.9452273,13.77544 41.6497727,13.1453067 42.8784091,12.8637867 C42.3829545,11.9058933 44.2470455,13.2445867 44.4043182,13.3134933 C44.1034091,13.78768 44.6334091,14.144 44.4043182,14.6657867 C44.2470455,14.99944 43.1175,15.2261067 42.8784091,15.5579467 C42.5265909,16.0135467 43.1515909,16.40704 42.8784091,16.9134133 L41.8606818,16.9134133 C41.6993182,17.44336 41.6497727,17.81464 42.3670455,17.81464 C42.3670455,17.81464 41.6029545,18.7947467 41.3470455,19.6112 C41.1265909,19.5386667 40.2784091,18.76664 39.8147727,19.15832 C39.8147727,19.15832 39.1811364,21.0868 38.8006818,21.4073067 L37.7802273,21.4073067 C36.8638636,21.6761333 32.4211364,25.9111733 31.6584091,26.8060533 L30.9047727,27.5517867 C30.7438636,27.5517867 30.2379545,27.61208 30.1311364,27.70864 C29.7279545,28.0237067 30.0111364,29.1742667 29.6211364,29.5110933 C29.0775,29.9340533 26.5552273,30.7437067 26.0470455,31.3090133 C25.7756818,31.5882667 26.2397727,32.2954667 26.0470455,32.6604 L25.0279545,32.6604 C24.7379545,33.47368 24.9529545,33.7556533 24.5193182,34.4587733 C24.3275,34.37128 23.6911364,33.8535733 23.4956818,34.00952 C23.6911364,34.3517867 23.4956818,35.4121333 23.4956818,35.8133333 C24.3111364,36.2013867 25.6034091,36.6198133 26.5552273,37.1533867 C26.6047727,37.10216 27.0329545,35.84552 27.0652273,35.8133333 C27.2134091,35.8133333 28.4838636,35.8953867 28.5961364,35.8133333 C28.9770455,35.4570133 28.6984091,34.5236 29.1297727,34.1904 C29.3802273,33.9582933 30.2511364,33.6713333 30.6384091,33.558 C32.2488636,32.9972267 32.8665909,30.38104 34.2038636,29.5110933 C35.0361364,28.9457867 35.7534091,29.5110933 36.7620455,29.0595733 C37.2161364,28.8310933 37.2956818,27.96432 37.7802273,27.70864 C38.6020455,27.2471467 40.0120455,27.1057067 40.8343182,26.8060533 L40.8343182,26.3577067 C42.0811364,26.0721067 41.5270455,27.0630933 42.3670455,26.8060533 C42.5925,26.7407733 43.1620455,25.49864 43.3870455,25.4596533 C44.4870455,25.16816 44.9138636,26.0517067 45.4265909,25.9111733 L45.4265909,25.0085867 C47.1006818,24.80232 48.0065909,24.80232 50.0161364,24.5570667 C50.1915909,23.9545867 49.5575,23.6154933 50.5275,23.6572 C50.7293182,23.6572 52.3079545,24.92608 52.5656818,25.0085867 C52.7556818,24.3503467 53.0406818,26.68048 53.0779545,26.8060533 C52.9520455,26.84776 52.0529545,27.2471467 52.0529545,27.2593867 L52.0529545,28.1556267 C52.6961364,28.1157333 52.8011364,29.32568 52.5656818,29.95944 L51.5452273,29.95944 C51.2270455,30.4522133 51.8161364,30.7904 51.5452273,31.3090133 L50.5275,31.3090133 C50.4225,31.5986933 50.3456818,31.8561867 50.2725,32.0964533 L50.1975,32.12184 L50.1288636,32.6445333 C50.0611364,32.92424 49.9965909,33.1898933 49.9215909,33.48592 L49.3206818,34.2769867 L48.2929545,34.90576 L47.4675,34.90576 C47.2365909,35.22264 47.4597727,35.8826933 47.4875,36.37456 L46.7725,37.2100533 L46.1520455,38.4861867 L44.7475,38.7051467 L43.5775,40.4636267 L42.3784091,39.9713067 L42.2625,41.7320533 C42.1797727,41.6767467 42.0570455,41.6441067 41.8606818,41.6590667 C41.8606818,41.6590667 41.8456818,41.7651467 41.8552273,41.9251733 L40.6543182,42.3227467 L39.6956818,43.2461867 L38.8152273,44.2748 L37.7365909,44.3894933 L37.8115909,45.084 L37.0002273,45.97888 L36.7197727,45.3306133 L36.0238636,46.71328 L36.9502273,46.97848 L37.7365909,46.98936 L38.5465909,46.3959467 L40.1388636,44.9597867 L41.4011364,44.5014667 L41.5038636,43.282 L43.0506818,43.4882667 L43.1215909,43.47648 C43.5561364,43.4986933 44.1365909,43.36904 44.9138636,43.0068267 C44.9352273,42.9932267 44.9138636,41.7170933 44.9138636,41.6590667 C45.9556818,41.1227733 46.8938636,40.9010933 47.9756818,40.3045067 C47.9220455,40.1562667 47.8247727,39.9694933 47.7243182,39.7727467 L48.6965909,39.2600267 L49.9311364,38.45944 L51.0275,37.62848 L51.3947727,36.1973067 L51.6752273,35.8409867 C52.1625,35.59664 52.5229545,35.40216 52.5656818,35.3604533 C52.5915909,35.3214667 52.5352273,35.1596267 52.4593182,34.9470133 L54.0947727,34.34544 L53.1984091,33.0171733 C53.5634091,33.1382133 53.8834091,33.4949867 54.0947727,33.558 C54.5906818,32.39248 54.5906818,31.7133867 55.1129545,30.41096 C55.2902273,30.41096 56.5647727,30.50752 56.6393182,30.41096 C54.2865909,29.1185067 60.3865909,22.8715733 52.5656818,20.95896" id="Fill-7" fill="#0056A3"></path>
                    <path d="M42.6740455,42.531552 L43.0599545,42.5836853 C43.1004091,42.5796053 43.1404091,42.5755253 43.1676818,42.5796053 C43.3008636,42.5786987 43.5690455,42.5673653 44.0208636,42.4046187 C44.0199545,42.171152 44.0154091,41.920912 44.0135909,41.7817387 C44.0085909,41.4412853 44.1967727,41.016512 44.4999545,40.8605653 C45.0104091,40.5985387 45.4963182,40.4054187 45.9849545,40.2136587 C46.2681364,40.1021387 46.5526818,39.991072 46.8449545,39.8614187 C46.8190455,39.5078187 46.9831364,39.1469653 47.3031364,38.977872 L48.2754091,38.466512 L50.2317727,37.102432 L50.5217727,35.9745387 C50.5531364,35.853952 50.6081364,35.741072 50.6849545,35.6422453 L50.9654091,35.2859253 C51.0476818,35.182112 51.1517727,35.0973387 51.2699545,35.0384053 C51.3740455,34.9867253 51.4708636,34.9364053 51.5590455,34.8915253 C51.5813182,34.5474453 51.8013182,34.2310187 52.1472273,34.1040853 L52.7063182,33.898272 L52.4504091,33.518832 C52.2349545,33.1996853 52.2467727,32.7798987 52.4804091,32.474352 C52.7145,32.1678987 53.1185909,32.044592 53.4813182,32.1633653 C53.5263182,32.1783253 53.5695,32.1946453 53.6113182,32.2127787 C53.6522273,32.0695253 53.6895,31.9294453 53.7272273,31.786192 C53.8617727,31.2834453 54.0022273,30.7612053 54.2758636,30.0775787 C54.4131364,29.7362187 54.7449545,29.5127253 55.1131364,29.5127253 L55.1704091,29.5145387 C55.1213182,28.8177653 55.2995,28.0375787 55.4654091,27.3054453 C56.0122273,24.9109387 56.4835909,22.8432853 52.3508636,21.832352 L52.3499545,21.8314453 C50.4449545,21.3744853 45.0104091,22.4692853 42.7654091,23.5695253 C42.3390455,23.779872 41.8263182,23.6225653 41.5890455,23.2150187 C41.3508636,22.8070187 41.4695,22.2847787 41.8613182,22.0191253 C42.2685909,21.743952 42.6499545,21.4374987 43.0399545,21.1260587 C43.4426818,20.8046453 43.8554091,20.475072 44.3117727,20.1590987 C43.9385909,19.222512 43.9308636,19.056592 44.1349545,18.7066187 C44.2958636,18.429632 44.5926818,18.2600853 44.9140455,18.2600853 L44.9967727,18.2600853 C45.0185909,18.1376853 45.0590455,18.008032 45.1231364,17.8752053 C45.2904091,17.4726453 45.5704091,17.2078987 45.7954091,16.9957387 C46.0758636,16.7300853 46.3399545,16.4802987 46.6199545,15.7087253 C47.3240455,13.684592 47.4826818,12.472832 47.1263182,11.786032 C46.7108636,10.986352 45.3472273,10.4826987 43.3022273,9.87749867 C43.2267727,10.0198453 43.1604091,10.1422453 43.1604091,10.1422453 C43.0245,10.394752 42.7763182,10.5656587 42.4913182,10.6046453 C41.8081364,10.7002987 41.2585909,10.4509653 40.8572273,10.151312 C40.8549545,10.154032 40.8540455,10.1572053 40.8531364,10.1599253 C40.7231364,10.466832 40.5617727,10.8480853 40.1281364,11.0076587 C39.1622273,11.3068587 38.5754091,10.9396587 38.2240455,10.7193387 C38.2049545,10.7070987 38.1881364,10.6962187 38.1713182,10.6848853 C38.1367727,11.093792 37.8290455,11.4319787 37.4172273,11.4995253 C37.1040455,11.5502987 34.2849545,11.894832 33.8554091,11.9469653 C33.8313182,11.9551253 33.7513182,11.973712 33.6613182,11.9950187 C33.4999545,12.030832 33.2695,12.0738987 33.1372273,12.132832 C32.9108636,12.308272 32.6317727,12.5417387 32.3476818,12.7792853 C31.8240455,13.2162987 31.2822273,13.6687253 30.5976818,14.081712 C30.4313182,14.1818987 30.2354091,14.225872 30.0408636,14.2077387 C29.6245,14.168752 29.0867727,14.2458187 28.9726818,14.3627787 C28.8126818,14.5722187 28.5695,14.7000587 28.3049545,14.7136587 C28.1376818,14.7177387 27.9885909,14.6878187 27.8495,14.6157387 C27.7613182,14.6071253 27.6690455,14.6030453 27.6272273,14.6170987 C27.6413182,14.544112 27.6258636,14.7734987 27.5981364,14.8845653 C27.5581364,15.0382453 27.5108636,15.220032 27.4322273,15.4045387 C28.0426818,15.1257387 28.6181364,14.896352 29.0645,14.8192853 C29.6385909,14.712752 30.3231364,14.956192 31.1199545,15.2399787 C31.3063182,15.3066187 31.5508636,15.3936587 31.7808636,15.4666453 C31.7799545,15.3714453 31.7790455,15.2889387 31.7790455,15.2290987 C31.7735909,14.8006987 32.0731364,14.3215253 32.4935909,14.2335787 C32.7281364,14.1846187 33.0363182,14.1927787 33.7972273,14.2236053 C34.1876818,14.2426453 34.8399545,14.2689387 35.0113182,14.2417387 C35.0667727,14.1995787 35.5499545,13.8092587 35.8695,13.5508587 C36.6154091,12.9479253 37.0945,12.5716587 37.5354091,12.4478987 C38.3985909,12.1781653 39.1522273,12.540832 39.5795,12.8323253 C39.9599545,12.7566187 40.5995,12.5671253 41.0572273,12.432032 C41.3708636,12.3390987 41.6913182,12.245712 41.9990455,12.1604853 C42.0663182,12.0285653 42.1522273,11.9351787 42.2145,11.8780587 C42.8813182,11.2737653 43.7449545,11.8272853 44.6595,12.414352 C44.8995,12.5195253 45.1358636,12.762512 45.2131364,13.012752 C45.2890455,13.2625387 45.3063182,13.571712 45.1658636,13.793392 C45.3249545,13.986512 45.4754091,14.4670453 45.2299545,15.0260053 C44.9917727,15.5323787 44.4808636,15.747712 43.9867727,15.9553387 C43.9195,15.984352 43.8304091,16.0215253 43.7472273,16.0582453 C43.8563182,16.4136587 43.9308636,16.8597387 43.6722273,17.338912 C43.5740455,17.5216053 43.4181364,17.6603253 43.2335909,17.740112 C43.2649545,17.9608853 43.2208636,18.1852853 43.0795,18.3675253 C42.8940455,18.6046187 42.3772273,19.3412853 42.2085909,19.8784853 C42.1363182,20.1074187 41.9754091,20.2991787 41.7613182,20.4093387 C41.5467727,20.521312 41.2985909,20.540352 41.0685909,20.465552 C40.9017727,20.411152 40.7681364,20.3245653 40.5976818,20.2148587 C40.5590455,20.1885653 40.5017727,20.1518453 40.4385909,20.1128587 C40.0549545,21.1609653 39.7008636,21.8260053 39.3826818,22.0943787 C39.2204091,22.2312853 39.0140455,22.305632 38.8004091,22.305632 L37.9590455,22.305632 C37.0340455,22.8083787 33.1485909,26.445472 32.3445,27.3884053 L31.5399545,28.1894453 C31.3713182,28.3567253 31.1431364,28.4496587 30.9049545,28.4496587 C30.8781364,28.4505653 30.8349545,28.4546453 30.7876818,28.4591787 C30.7799545,28.5353387 30.7735909,28.616032 30.7685909,28.6822187 C30.7313182,29.172272 30.6845,29.7806453 30.2122273,30.1904587 C29.8667727,30.4597387 29.3422273,30.6882187 28.5113182,31.040912 C28.0576818,31.232672 27.2867727,31.5595253 26.9035909,31.783472 C26.9045,31.786192 26.9045,31.7893653 26.9049545,31.7925387 C26.9795,32.1189387 27.0917727,32.611712 26.8454091,33.078192 C26.6890455,33.373312 26.3817727,33.5578187 26.0476818,33.5578187 L25.7422273,33.5578187 C25.7408636,33.5714187 25.7390455,33.5832053 25.7381364,33.594992 C25.6935909,33.9354453 25.6385909,34.360672 25.2867727,34.9309653 C25.1472273,35.1540053 24.9249545,35.297712 24.6808636,35.3430453 C24.7699545,35.3774987 24.8599545,35.4137653 24.9513182,35.4504853 C25.3067727,35.5923787 25.6881364,35.745152 26.0635909,35.9106187 C26.2535909,35.386112 26.2817727,35.3280853 26.4185909,35.1870987 C26.5876818,35.012112 26.8213182,34.9146453 27.0654091,34.9146453 L27.3390455,34.9246187 C27.5013182,34.931872 27.7313182,34.9445653 27.9426818,34.9504587 C27.9426818,34.9463787 27.9426818,34.942752 27.9435909,34.9395787 C27.9845,34.521152 28.0476818,33.8896587 28.5772273,33.479392 C28.8963182,33.1797387 29.7426818,32.882352 30.3863182,32.6955787 C30.9372273,32.5020053 31.4445,31.6837387 31.9349545,30.891312 C32.4349545,30.0852853 32.9499545,29.2529653 33.7113182,28.7579253 C34.3758636,28.3050453 35.0276818,28.3268053 35.5108636,28.346752 C35.8576818,28.3558187 36.1058636,28.3676053 36.3935909,28.2388587 C36.2981364,28.274672 36.3949545,28.1105653 36.4463182,28.0062987 C36.6195,27.6581387 36.8558636,27.179872 37.3572273,26.9142187 C37.9526818,26.5810187 38.7599545,26.3983253 39.4704091,26.237392 C39.6395,26.1997653 39.8058636,26.1630453 39.9631364,26.1236053 C40.0481364,25.8098987 40.3013182,25.5569387 40.6317727,25.481232 C41.3413182,25.319392 41.7958636,25.4481387 42.1045,25.6602987 C42.4599545,25.0804853 42.7199545,24.6634187 43.2326818,24.5745653 C43.7785909,24.4290453 44.2431364,24.5056587 44.6072273,24.6348587 C44.7345,24.3587787 44.9967727,24.156592 45.3158636,24.1162453 C46.1381364,24.0156053 46.7776818,23.9625653 47.4508636,23.907712 C47.9440455,23.866912 48.4567727,23.8252053 49.0776818,23.7599253 C49.0863182,23.5672587 49.1454091,23.3614453 49.3067727,23.166512 C49.6758636,22.7208853 50.2540455,22.7498987 50.5658636,22.7589653 L50.5681364,22.7589653 C50.9154091,22.7589653 51.1895,22.9466453 52.1726818,23.660192 C52.3372273,23.7789653 52.4981364,23.898192 52.6345,23.9938453 C52.6563182,23.9938453 52.6785909,23.9956587 52.6995,23.994752 C53.5635909,24.050512 53.6904091,24.8769387 53.9208636,26.377472 L53.9576818,26.6118453 C54.0431364,27.0552053 53.7917727,27.5162453 53.3631364,27.6590453 C53.3231364,27.6740053 53.2358636,27.7107253 53.1299545,27.7569653 C53.1467727,27.7764587 53.1640455,27.797312 53.1799545,27.8195253 C53.6745,28.4836587 53.6685909,29.5784587 53.4104091,30.2720587 C53.2799545,30.624752 52.9426818,30.8577653 52.5654091,30.8577653 L52.5063182,30.8577653 C52.5354091,31.1193387 52.5072273,31.4130987 52.3449545,31.7240853 C52.1895,32.0219253 51.8817727,32.2073387 51.5449545,32.2073387 L51.1808636,32.2073387 C51.1695,32.2436053 51.1599545,32.277152 51.1485909,32.312512 C51.1267727,32.385952 51.0935909,32.459392 51.0531364,32.5282987 L50.7954091,33.7060587 C50.7654091,33.823472 50.7131364,33.9327253 50.6399545,34.028832 L50.0395,34.8198987 C49.9717727,34.908752 49.8872273,34.9844587 49.7922273,35.043392 L48.7640455,35.6721653 C48.6308636,35.7528587 48.4795,35.798192 48.3245,35.803632 C48.3526818,35.9836053 48.3785909,36.161312 48.3876818,36.3240587 C48.4008636,36.5548053 48.3245,36.7823787 48.1735909,36.9578187 L47.5335909,37.7067253 L46.9626818,38.8781387 C46.8335909,39.1442453 46.5835909,39.328752 46.2913182,39.3740853 L45.2790455,39.5309387 L44.3281364,40.9602987 C44.0895,41.3188853 43.6340455,41.458512 43.2335909,41.2948587 L43.1954091,41.278992 L43.1626818,41.7912587 C43.1413182,42.1063253 42.9554091,42.3878453 42.6740455,42.531552 L42.6740455,42.531552 Z M40.5676818,43.6567253 L40.2685909,43.9559253 L40.5508636,43.8530187 L40.5676818,43.6567253 Z M37.7367727,47.8876853 L37.7254091,47.8876853 L36.9390455,47.877712 C36.8576818,47.876352 36.7776818,47.8645653 36.6995,47.842352 L35.7745,47.5762453 C35.5172273,47.502352 35.3058636,47.3178453 35.1990455,47.0734987 C35.0913182,46.8286987 35.0985909,46.548992 35.2185909,46.3105387 L35.9135909,44.927872 C36.0708636,44.615072 36.4049545,44.4278453 36.7454091,44.4319253 C36.7763182,44.4332853 36.8067727,44.435552 36.8367727,44.4387253 C36.8249545,44.2174987 36.8945,43.998992 37.0349545,43.8253653 C37.1849545,43.6394987 37.4031364,43.5207253 37.6408636,43.495792 L38.3626818,43.4187253 L39.0099545,42.662112 L40.0272273,41.677472 C40.1240455,41.583632 40.2413182,41.5124587 40.3699545,41.4702987 L41.0635909,41.2400053 C41.1445,41.0881387 41.2663182,40.962112 41.4154091,40.877792 L41.4790455,39.912192 C41.4985909,39.623872 41.6558636,39.361392 41.9026818,39.2086187 C42.1490455,39.0549387 42.4549545,39.0313653 42.7222273,39.139712 L43.2358636,39.3514187 L43.9967727,38.2076587 C44.1358636,37.9977653 44.3581364,37.8554187 44.6085909,37.8159787 L45.5472273,37.670912 L45.9617727,36.818192 C45.9949545,36.748832 46.0367727,36.6853653 46.0872273,36.6273387 L46.5445,36.0914987 C46.5426818,36.0765387 46.5404091,36.0615787 46.5376818,36.0466187 C46.4576818,35.5366187 46.3572273,34.9024053 46.7367727,34.3788053 C46.9067727,34.1448853 47.1781364,34.0075253 47.4676818,34.0075253 L48.0385909,34.0075253 L48.7045,33.599072 L49.0904091,33.091792 L49.3035909,32.0042453 C49.3258636,31.8383253 49.3935909,31.6846453 49.4949545,31.5586187 C49.5522273,31.3759253 49.6090455,31.197312 49.6781364,31.0060053 C49.8072273,30.6483253 50.1463182,30.4107787 50.5267727,30.4107787 L50.5649545,30.4107787 C50.5267727,30.1464853 50.5649545,29.8178187 50.7872273,29.4737387 C50.9535909,29.215792 51.2390455,29.0612053 51.5449545,29.0612053 L51.7685909,29.0612053 C51.7654091,29.0412587 51.7635909,29.0231253 51.7604091,29.006352 C51.6399545,28.965552 51.5290455,28.8998187 51.4349545,28.8109653 C51.2540455,28.6414187 51.1517727,28.4047787 51.1517727,28.1558987 L51.1517727,27.2596587 C51.1517727,26.966352 51.1517727,26.639952 52.0717727,26.2283253 C52.0376818,26.0261387 52.0076818,25.855232 51.9804091,25.7183253 C51.8004091,25.6095253 51.5476818,25.4300053 51.1113182,25.1135787 C51.0213182,25.0478453 50.9313182,24.9816587 50.8426818,24.9172853 C50.7158636,25.206512 50.4449545,25.4109653 50.1254091,25.4504053 C49.0713182,25.577792 48.3167727,25.6408053 47.5990455,25.6983787 C47.1804091,25.7337387 46.7758636,25.7663787 46.3281364,25.8121653 L46.3281364,25.910992 C46.3281364,26.3153653 46.0581364,26.6707787 45.6667727,26.777312 C45.0908636,26.936432 44.6404091,26.6730453 44.3399545,26.5003253 C44.1199545,26.3724853 43.9876818,26.3017653 43.8263182,26.2994987 C43.7654091,26.392432 43.7004091,26.5044053 43.6322273,26.6150187 C43.2908636,27.1712587 43.0654091,27.5380053 42.6222273,27.6690187 C42.1426818,27.8154453 41.7290455,27.7614987 41.3945,27.510352 C41.3204091,27.568832 41.2358636,27.6168853 41.1435909,27.6508853 C40.7908636,27.778272 40.3413182,27.8838987 39.8690455,27.990432 C39.2781364,28.1241653 38.6076818,28.2755787 38.2213182,28.492272 C38.2040455,28.5162987 38.1185909,28.688112 38.0626818,28.8018987 C37.8935909,29.1441653 37.6617727,29.6133653 37.1695,29.861792 C36.4613182,30.1782187 35.8735909,30.1614453 35.4449545,30.1424053 C35.0404091,30.1306187 34.8895,30.1333387 34.7108636,30.2530187 C34.2726818,30.5386187 33.8640455,31.1982187 33.4690455,31.836512 C32.8431364,32.845632 32.1340455,33.9898453 30.9363182,34.4060053 C30.3590455,34.575552 29.8549545,34.7777387 29.7235909,34.8656853 C29.7717727,34.852992 29.7481364,35.0062187 29.7376818,35.1163787 C29.6976818,35.5175787 29.6435909,36.0665653 29.2131364,36.468672 C28.8685909,36.7293387 28.5731364,36.769232 27.6804091,36.737952 C27.4017727,37.5095253 27.3608636,37.613792 27.2049545,37.7765387 C26.9217727,38.0716587 26.4717727,38.1396587 26.1135909,37.9370187 C25.5826818,37.639632 24.9208636,37.3748853 24.2804091,37.1196587 C23.8467727,36.946032 23.4395,36.7823787 23.1072273,36.6241653 C22.7940455,36.4745653 22.5945,36.1594987 22.5945,35.813152 C22.5945,35.6748853 22.6113182,35.4722453 22.6335909,35.2437653 C22.6567727,35.005312 22.7035909,34.5093653 22.6695,34.3556853 C22.4504091,33.971712 22.5863182,33.5832053 22.9317727,33.3075787 C23.2754091,33.031952 23.6399545,33.0382987 23.9799545,33.1457387 C24.0131364,32.935392 24.0663182,32.6747253 24.1790455,32.3582987 C24.3067727,32.0001653 24.6472273,31.7612587 25.0285909,31.7612587 L25.0699545,31.7612587 C25.0363182,31.4226187 25.0754091,31.0168853 25.4008636,30.6836853 C25.7717727,30.268432 26.5581364,29.914832 27.8054091,29.3866987 C28.1667727,29.2330187 28.6813182,29.014512 28.9385909,28.8776053 C28.9522273,28.780592 28.9635909,28.6450453 28.9717727,28.545312 C29.0076818,28.0643253 29.0590455,27.4051787 29.5745,27.0012587 C29.7985909,26.797712 30.2031364,26.7115787 30.5081364,26.676672 L31.0231364,26.1689387 C31.4658636,25.6435253 36.2258636,20.926592 37.5254091,20.5448853 C37.6081364,20.521312 37.6935909,20.509072 37.7795,20.509072 L38.3313182,20.509072 C38.4895,20.167712 38.7526818,19.5049387 38.9576818,18.8793387 C39.0099545,18.7215787 39.1049545,18.580592 39.2313182,18.473152 C39.7967727,17.9948853 40.4385909,18.119552 40.9381364,18.3444053 C40.9799545,18.2696053 41.0231364,18.1966187 41.0663182,18.126352 C40.7113182,17.5936853 40.8972273,16.9834987 40.9990455,16.6512053 C41.1145,16.272672 41.4649545,16.0151787 41.8613182,16.0151787 L41.8922273,16.0151787 C41.8454091,15.730032 41.8872273,15.3687253 42.1635909,15.0101387 C42.4090455,14.667872 42.8554091,14.4810987 43.2858636,14.2997653 C43.3622273,14.268032 43.4581364,14.2267787 43.5431364,14.187792 C43.4931364,14.070832 43.4472273,13.926672 43.4258636,13.7625653 C43.3749545,13.7303787 43.3208636,13.6977387 43.2667727,13.6646453 C43.2090455,13.6990987 43.1467727,13.7235787 43.0804091,13.7398987 C42.6172273,13.845072 42.0845,14.0032853 41.5699545,14.1560587 C40.4854091,14.4756587 39.8340455,14.712752 39.2940455,14.6633387 C39.0640455,14.6588053 38.8435909,14.567232 38.6799545,14.4062987 C38.6126818,14.3446453 38.2940455,14.0921387 38.0508636,14.1710187 C37.8726818,14.2458187 37.3299545,14.6850987 37.0045,14.9475787 C36.3431364,15.4834187 35.9176818,15.8188853 35.5340455,15.9576053 C35.1758636,16.071392 34.7081364,16.0623253 33.7213182,16.0201653 L33.5858636,16.014272 C33.5831364,16.8678987 33.5276818,16.9154987 33.2722273,17.1394453 C33.1940455,17.206992 33.1054091,17.2609387 33.0090455,17.2990187 C32.3081364,17.5705653 31.4363182,17.2609387 30.5135909,16.9327253 C30.1490455,16.803072 29.4585909,16.5686987 29.3549545,16.593632 C28.9376818,16.6652587 27.9504091,17.1421653 27.2295,17.4907787 C26.7713182,17.7110987 26.3385909,17.919632 26.0013182,18.0588053 C25.6458636,18.2061387 25.2395,18.111392 24.9831364,17.825792 C24.7408636,17.553792 24.0013182,16.725552 24.2304091,15.812992 C24.3449545,15.362832 24.6767727,15.0015253 25.1463182,14.8138453 C25.1885909,14.7948053 25.2335909,14.7789387 25.2795,14.7666987 L25.8004091,14.6238987 C25.8190455,14.5622453 25.8381364,14.4901653 25.8531364,14.4344053 C25.9431364,14.0848853 26.0804091,13.556752 26.5613182,13.1764053 C27.0317727,12.801952 27.6249545,12.7824587 28.0308636,12.8273387 C28.6454091,12.438832 29.4249545,12.3839787 29.8949545,12.4002987 C30.3604091,12.094752 30.7649545,11.7565653 31.1890455,11.4016053 C31.5035909,11.1395787 31.8117727,10.882992 32.1354091,10.644992 C32.3663182,10.454592 32.7513182,10.3557653 33.2649545,10.241072 C33.3272273,10.217952 33.5154091,10.177152 33.5817727,10.1694453 C33.5817727,10.1694453 35.3185909,9.95864533 36.3713182,9.82581867 L36.3713182,9.71429867 C36.3713182,9.30584533 36.6463182,8.949072 37.0417727,8.84480533 C38.1463182,8.55648533 38.7958636,8.954512 39.1808636,9.19477867 C39.2204091,9.22016533 39.2531364,9.24101867 39.2813182,9.25824533 C39.5276818,8.73192533 39.8849545,8.16480533 40.5749545,7.95853867 C40.9222273,7.85245867 41.3063182,7.96805867 41.5358636,8.25456533 C41.5708636,8.297632 41.6013182,8.34341867 41.6267727,8.39056533 C41.6749545,8.46309867 41.7813182,8.590032 41.9045,8.68885867 C42.1285909,8.29264533 42.1745,8.24776533 42.2463182,8.17704533 C42.4776818,7.95037867 42.8140455,7.862432 43.1285909,7.95536533 C46.0840455,8.80672533 47.9349545,9.43368533 48.7267727,10.9600587 C49.3458636,12.1527787 49.2276818,13.7018187 48.3195,16.3089387 C47.8908636,17.4916853 47.3767727,17.9776587 47.0354091,18.2999787 C46.8631364,18.4631787 46.8035909,18.5225653 46.7690455,18.6068853 C46.8990455,18.9428053 47.0631364,19.4718453 46.7149545,20.0661653 C46.6149545,20.2348053 46.4676818,20.3603787 46.2999545,20.4333653 C46.3013182,20.476432 46.2999545,20.5181387 46.2972273,20.560752 C48.7499545,20.012672 51.3776818,19.740672 52.7804091,20.0870187 C58.6340455,21.518192 57.7513182,25.3905653 57.2235909,27.7039253 C57.0522273,28.4546453 56.8181364,29.4828053 57.0745,29.6233387 C57.3054091,29.7498187 57.4690455,29.9714987 57.5226818,30.2285387 C57.5758636,30.4855787 57.5140455,30.7534987 57.3526818,30.9611253 C57.0472273,31.355072 56.6585909,31.384992 55.7326818,31.340112 C55.6226818,31.6714987 55.5458636,31.962992 55.4704091,32.2476853 C55.3317727,32.7703787 55.1954091,33.2717653 54.9249545,33.9082453 C54.9190455,33.9236587 54.9122273,33.9372587 54.9049545,33.952672 C55.0072273,34.159392 55.0249545,34.3996587 54.9531364,34.621792 C54.8676818,34.8847253 54.6667727,35.0932587 54.4072273,35.188912 L53.4535909,35.5393387 C53.4304091,35.6454187 53.3872273,35.7510453 53.3149545,35.858032 C53.1235909,36.0724587 53.0417727,36.1563253 52.2608636,36.5525387 L52.2213182,36.603312 L51.9008636,37.8508853 C51.8504091,38.0480853 51.7340455,38.2212587 51.5722273,38.344112 L50.4749545,39.1746187 L48.8690455,40.182832 C48.9190455,40.544592 48.7426818,40.9086187 48.4126818,41.091312 C47.7931364,41.432672 47.2185909,41.661152 46.6463182,41.8860053 C46.3726818,41.9934453 46.0999545,42.100432 45.8217727,42.2232853 C45.8317727,43.4014987 45.7867727,43.5071253 45.4131364,43.7546453 C44.4281364,44.224752 43.6945,44.4101653 43.0758636,44.374352 L42.3235909,44.2850453 L42.2990455,44.5765387 C42.2695,44.9256053 42.0395,45.225712 41.7099545,45.345392 L40.6131364,45.7443253 L39.1513182,47.063072 L38.2699545,47.7140587 C38.1149545,47.8269387 37.9285909,47.8876853 37.7367727,47.8876853 L37.7367727,47.8876853 Z" id="Fill-9" fill="#0056A3"></path>
                    <path d="M30.9312727,8.58617867 C30.6544545,13.814472 30.3153636,21.3171387 29.9903636,31.305432 L29.6408182,43.5105253 C29.5917273,45.4349253 29.5380909,47.4286853 29.4971818,49.4904453 C29.4417273,49.5357787 29.394,49.5833787 29.3544545,49.655912 C29.4894545,49.9378853 29.1703636,49.9079653 29.2499091,50.1409787 C29.1035455,50.1840453 29.2167273,50.3680987 29.1903636,50.4932187 C29.3603636,50.583432 29.2499091,50.9225253 29.3758182,51.1034053 L29.4508182,51.5454053 C29.4162727,51.5322587 29.4044545,51.577592 29.3803636,51.5998053 L29.394,51.7181253 C29.2244545,51.6709787 29.2403636,51.865912 29.1703636,51.9194053 C29.2376364,51.9851387 29.3185455,51.9307387 29.4117273,51.9116987 C29.4044545,51.9506853 29.4221818,51.9742587 29.4417273,51.9955653 C29.424,52.6025787 29.4162727,53.2032453 29.4058182,53.821592 C29.3308182,53.9730053 29.2285455,54.104472 28.9858182,54.1026587 L28.9967273,54.2236987 C28.959,54.225512 28.944,54.245912 28.9303636,54.2726587 C28.8821818,54.5795653 28.4935455,54.774952 28.734,55.151672 C28.9180909,55.197912 28.8780909,55.745992 29.2167273,55.4445253 C29.2721818,55.4000987 29.3185455,55.3656453 29.3758182,55.3357253 C29.3758182,55.4150587 29.3726364,55.4980187 29.3644545,55.5778053 C29.2499091,55.609992 29.1599091,55.6571387 29.1408182,55.797672 C29.1035455,56.049272 28.7308182,56.136312 28.8949091,56.5039653 C28.8644545,56.6118587 28.6849091,56.6481253 28.7699091,56.7940987 C28.6262727,56.8371653 28.7403636,57.0180453 28.7249091,57.139992 C28.6985455,57.448712 29.0958182,57.1499653 29.1376364,57.384792 L29.1530909,57.5620453 C29.0103636,57.610552 29.1117273,57.7905253 29.1094545,57.9120187 C29.1358182,57.9659653 29.2044545,57.9120187 29.1903636,58.018552 C29.2571818,58.145032 29.0980909,58.1781253 29.0862727,58.2316187 L29.0103636,58.2547387 C28.8585455,58.180392 28.6430909,58.2220987 28.5326364,58.052552 C28.5030909,57.8830053 28.5326364,57.7905253 28.614,57.701672 C28.7403636,57.6762853 28.7503636,57.5919653 28.7976364,57.4890587 C28.614,57.477272 28.4835455,57.3000187 28.3217273,57.2918587 L28.3130909,57.2510587 C28.1649091,57.2016453 28.0053636,57.2682853 27.8630909,57.2959387 C27.9008182,56.9300987 27.5453636,57.0334587 27.5694545,56.708872 L27.6062727,56.703432 L27.5771818,55.9644987 C27.6144545,55.955432 27.6312727,55.935032 27.6399091,55.895592 L27.6312727,55.7736453 C27.6894545,55.7818053 27.7044545,55.740552 27.7194545,55.714712 C27.634,55.592312 27.8017273,55.5628453 27.8158182,55.4980187 C27.8908182,55.3656453 28.0908182,55.407352 28.1335455,55.2201253 C28.0526364,55.151672 28.0267273,55.0786853 28.0371818,54.9576453 C28.1826364,54.989832 28.1721818,54.814392 28.2367273,54.7359653 C28.2935455,54.5446587 28.1121818,54.5582587 28.0685455,54.4911653 L27.9953636,54.5011387 C27.8962727,54.181992 27.7285455,53.9489787 27.4558182,53.837912 C27.4403636,53.6588453 27.4126364,53.5260187 27.5549091,53.4389787 C27.849,53.2617253 27.8962727,53.6166853 28.1167273,53.457112 L28.0371818,53.348312 C28.0794545,53.1819387 28.3021818,53.2404187 28.4449091,53.1937253 C28.4280909,53.2390587 28.4694545,53.2540187 28.4871818,53.2685253 L28.5958182,53.250392 C28.5603636,53.4154053 28.7249091,53.4104187 28.8108182,53.365992 C28.8449091,53.365992 28.9362727,53.3854853 28.9558182,53.3016187 C28.7912727,53.152472 28.5262727,53.0812987 28.4512727,52.8523653 C28.3430909,52.8741253 28.3430909,52.6755653 28.2067273,52.7789253 C28.2185455,52.6932453 28.1417273,52.688712 28.0862727,52.717272 L27.9803636,52.7385787 C27.974,52.6596987 27.9203636,52.6474587 27.8667273,52.6596987 L27.7349091,52.6814587 C27.7562727,52.6415653 27.7167273,52.6279653 27.6912727,52.609832 C27.5694545,52.5980453 27.4126364,52.503752 27.3280909,52.401752 C27.3776364,52.1873253 27.2217273,52.216792 27.1576364,52.1274853 C27.2326364,52.0912187 27.1994545,51.9388987 27.3476364,51.9683653 C27.4226364,51.7756987 27.2326364,51.4914587 27.4762727,51.384472 L27.4635455,51.2670587 C27.5012727,51.2829253 27.5126364,51.2353253 27.5349091,51.2140187 L27.5258182,51.0993253 C27.5571818,51.0875387 27.5771818,51.066232 27.5921818,51.0440187 L27.5785455,50.9066587 C27.7249091,50.8590587 27.6144545,50.6790853 27.6399091,50.573912 C27.3708182,50.406632 27.4330909,49.9274587 27.1771818,49.7737787 L27.1699091,49.6359653 C27.2130909,49.650472 27.2249091,49.6060453 27.2385455,49.5792987 C27.1894545,49.4510053 27.3512727,49.360792 27.3930909,49.2732987 C27.4321818,49.2660453 27.5012727,49.2538053 27.5126364,49.2102853 C27.6358182,49.151352 27.8017273,49.0375653 27.9544545,48.948712 C27.9426364,48.8322053 27.8217273,48.9156187 27.8471818,48.7723653 C27.9294545,48.675352 27.9953636,48.6023653 28.0626364,48.512152 C27.9680909,48.363912 27.8217273,48.294552 27.6553636,48.2655387 C27.5785455,48.0955387 27.4126364,48.026632 27.4558182,47.7392187 C27.5126364,47.7500987 27.5258182,47.664872 27.5171818,47.6014053 C27.5562727,47.4005787 27.3653636,47.4749253 27.4126364,47.243272 C27.4762727,47.1526053 27.6553636,47.0809787 27.6044545,46.8683653 L27.4449091,46.7758853 C27.4762727,46.7473253 27.5412727,46.6398853 27.4976364,46.5614587 C27.7285455,46.4413253 27.8767273,46.257272 27.9853636,46.0578053 L27.9603636,45.7971387 C28.1558182,45.7060187 28.1080909,46.3452187 28.0176364,45.9789253 C27.9953636,45.9208987 27.6671818,46.1520987 27.6062727,46.1262587 C27.4321818,46.2196453 27.6062727,45.868312 28.0371818,45.5863387 C28.0267273,45.5042853 27.9544545,45.4961253 27.9008182,45.5292187 L27.7899091,45.551432 C27.8080909,45.5042853 27.7685455,45.469832 27.7462727,45.4566853 C27.6312727,45.5577787 27.6144545,45.3846053 27.5376364,45.3782587 C27.5349091,45.2952987 27.5608182,45.2064453 27.484,45.1833253 L27.3767273,45.203272 L27.3653636,45.061832 C27.5412727,45.029192 27.7462727,45.037352 27.8862727,44.9290053 L27.8767273,44.8066053 C27.9462727,44.8192987 27.9603636,44.734072 27.9544545,44.6787653 C27.9294545,44.6193787 27.9603636,44.5346053 27.9008182,44.509672 C27.6971818,44.5019653 27.7194545,44.7372453 27.5694545,44.7481253 C27.5694545,44.708232 27.5549091,44.6882853 27.5276364,44.6764987 L27.4026364,44.6941787 C27.4180909,44.6329787 27.3767273,44.6193787 27.3653636,44.6039653 L27.2521818,44.6234587 C27.2326364,44.4208187 27.1021818,44.410392 27.1362727,44.180552 C27.1753636,44.1950587 27.1894545,44.1483653 27.2071818,44.1293253 L27.1994545,44.0155387 C27.2326364,44.0273253 27.2471818,43.9828987 27.2662727,43.957512 L27.2521818,43.837832 L27.294,43.8314853 C27.3312727,43.6859653 27.3135455,43.488312 27.2471818,43.380872 L27.219,43.3881253 C27.1458182,43.2426053 27.294,43.2249253 27.2985455,43.1501253 C27.3376364,43.1460453 27.4126364,43.1501253 27.4258182,43.0862053 C27.3271818,43.006872 27.279,42.8350587 27.0971818,42.885832 L27.0653636,42.6065787 C27.1458182,42.594792 27.1558182,42.528152 27.134,42.479192 L27.1144545,42.3359387 C27.1894545,42.3468187 27.2035455,42.268392 27.1771818,42.2108187 L27.1662727,42.0906853 C27.2071818,42.086152 27.2249091,42.0612187 27.2353636,42.0353787 C27.2471818,41.7302853 26.8712727,41.8622053 26.9371818,41.491832 L26.8949091,41.495912 C27.039,41.4324453 26.9058182,41.2570053 26.9403636,41.1074053 L26.9662727,41.1019653 C27.0271818,40.954632 26.9780909,40.780552 26.9662727,40.6019387 C27.0003636,40.6150853 27.0158182,40.5702053 27.0271818,40.5488987 L27.0199091,40.4342053 C27.0571818,40.4464453 27.0753636,40.402472 27.0912727,40.3788987 L27.0808182,40.261032 C27.1662727,40.0674587 27.1244545,39.7895653 27.3376364,39.649032 L26.9171818,39.2664187 C26.9780909,39.175752 27.0971818,39.0905253 27.0467273,38.9196187 C26.9403636,38.6852453 26.8426364,38.454952 26.7485455,38.2119653 C26.8303636,38.1335387 26.8558182,37.9943653 27.0030909,38.007512 L27.0094545,38.042872 C27.1185455,38.0886587 27.2608182,38.0202053 27.3867273,38.0202053 C27.2521818,37.7418587 27.9544545,37.3714853 27.3708182,37.379192 C27.3653636,37.277192 27.2353636,37.3420187 27.2821818,37.195592 C27.3135455,37.195592 27.3280909,37.158872 27.3476364,37.141192 C27.3376364,37.0233253 27.2471818,37.0954053 27.2249091,36.9852453 C27.1144545,36.9992987 27.1603636,37.1312187 27.0330909,37.1189787 C27.039,37.0369253 26.9662727,37.032392 26.9171818,37.0414587 L26.7908182,37.062312 C26.8049091,37.0206053 26.7408182,37.0088187 26.7212727,36.9870587 C26.5985455,37.066392 26.6103636,36.9050053 26.5380909,36.896392 C26.5276364,36.7771653 26.7258182,36.7354587 26.6658182,36.5405253 L26.7017273,36.5341787 C26.889,35.977032 26.4067273,35.914472 26.5553636,35.2974853 C26.5862727,35.3169787 26.6044545,35.2734587 26.6249091,35.2539653 L26.5458182,35.139272 C26.5835455,35.159672 26.5985455,35.1179653 26.6167273,35.0912187 C26.6812727,34.767992 27.0571818,34.7058853 26.9662727,34.2557253 C27.0030909,34.2652453 27.0199091,34.228072 27.039,34.2040453 C27.1049091,34.0136453 27.2412727,33.858152 27.0808182,33.7076453 C27.0912727,33.480072 26.8671818,33.387592 26.9285455,33.099272 C26.9403636,32.906152 27.3271818,33.089752 27.1894545,32.8508453 L27.0826364,32.8676187 C27.0199091,32.6921787 26.8712727,32.5928987 26.8985455,32.3530853 C26.9403636,32.3426587 26.9503636,32.326792 26.9662727,32.3072987 L26.9662727,32.2583387 C26.8203636,32.1640453 26.4817273,32.3820987 26.4330909,32.149992 C26.3771818,32.0216987 26.4999091,31.9863387 26.5380909,31.9020187 C26.6249091,31.8884187 26.7708182,31.8884187 26.7258182,31.755592 C26.7058182,31.6948453 26.7485455,31.6150587 26.6917273,31.5810587 L26.6480909,31.5837787 C26.6249091,31.374792 26.9599091,31.4867653 26.9371818,31.270072 C26.7512727,31.2909253 26.6658182,31.104152 26.6326364,30.970872 C26.7121818,30.7990587 26.7017273,30.546552 26.8671818,30.4440987 C26.9403636,30.3348453 26.8949091,30.2224187 26.8917273,30.103192 C26.9662727,30.093672 26.9780909,30.031112 26.9762727,29.969912 L26.9721818,29.8320987 C27.0158182,29.848872 27.0271818,29.808072 27.039,29.784952 C26.9503636,29.7174053 26.9226364,29.5188453 26.7258182,29.5859387 C26.7408182,29.544232 26.8426364,29.5288187 26.8303636,29.512952 C26.6999091,29.5859387 26.6958182,29.4100453 26.6249091,29.398712 C26.6180909,29.3615387 26.2944545,19.749512 26.2944545,19.749512 C26.3812727,19.5718053 26.2944545,18.3074587 26.2944545,18.3074587 C26.3121818,18.2734587 26.2767273,18.250792 26.2653636,18.2312987 C26.129,18.2897787 26.1380909,18.1329253 26.0871818,18.1125253 C26.1035455,17.8953787 26.0217273,17.795192 25.9585455,17.661912 C25.9571818,17.4801253 26.1712727,17.4801253 26.1471818,17.2888187 C26.1471818,17.2888187 26.2267273,17.0059387 26.2526364,16.8685787 C26.1471818,16.7910587 26.0003636,15.9052453 26.1303636,15.798712 C26.2267273,15.798712 26.3703636,15.8154853 26.3453636,15.662712 C26.309,15.4636987 26.1471818,15.345832 26.2267273,15.0502587 C26.3017273,15.0502587 26.3258182,14.985432 26.3267273,14.9319387 C26.3899091,14.752872 26.234,14.752872 26.1844545,14.6735387 L26.1071818,14.6735387 C26.1303636,14.5928453 26.0617273,14.5769787 26.0044545,14.5955653 L25.8976364,14.5955653 C25.8735455,14.4015387 25.9849091,14.1236453 25.7676364,14.104152 C25.6508182,14.1658053 25.9253636,13.726072 25.9703636,13.572392 C25.9703636,13.572392 26.224,13.1730053 26.1844545,13.1911387 L26.0771818,13.1911387 C26.0794545,13.1530587 26.0558182,13.135832 26.0376364,13.1136187 C25.9053636,13.058312 25.7635455,12.9504187 25.7180909,12.818952 C26.024,12.893752 25.7994545,11.9698587 25.7099091,11.9494587 L25.7217273,11.827512 C25.8503636,11.8062053 25.7708182,11.6135387 25.8208182,11.4924987 C25.759,11.3234053 25.6780909,11.1361787 25.6208182,10.9648187 C25.6349091,10.785752 25.8912727,10.7698853 25.8208182,10.505592 L25.8599091,10.505592 L25.7430909,8.69588533 C25.7985455,8.71356533 25.6708182,8.373112 25.6762727,8.310552 L25.6844545,8.17273867 C25.8108182,8.13873867 25.9135455,7.34676533 25.8280909,7.26425867 L25.8444545,7.026712 C25.9867273,7.006312 25.7726364,6.81137867 25.7994545,6.68897867 L25.8385455,6.68897867 C25.9235455,6.57473867 25.8776364,6.53529867 25.8821818,6.39340533 L25.7994545,6.01940533 C25.909,5.88793867 25.5008182,5.148552 25.6762727,5.17257867 C25.6780909,5.11545867 25.7217273,5.030232 25.6508182,4.99441867 L25.6153636,4.99441867 C25.6153636,4.99441867 25.7530909,4.61724533 25.6780909,4.57916533 C25.6780909,4.57916533 25.7058182,4.788152 25.7312727,4.713352 C25.639,4.49529867 25.6208182,4.23916533 25.569,4.000712 C25.759,3.882392 25.6208182,3.972152 25.6030909,3.657992 C25.5180909,3.376472 25.569,3.285352 25.494,3.00700533 C25.5458182,2.89004533 25.3699091,1.37228533 25.3576364,1.034552 L31.3453636,0.451565333 L30.9312727,8.58617867" id="Fill-11" fill="#FFFFFF"></path>
                    <path d="M51.2331364,19.6689093 C49.1017727,19.1480293 43.4467727,20.287256 41.0367727,21.4695493 C42.0572273,20.7813893 42.9322273,19.909176 44.0931364,19.2269093 C43.9531364,18.8665093 43.5558636,17.9136027 43.5863182,17.8700827 L44.0931364,17.8700827 C43.6217727,18.530136 44.4663182,18.2508827 44.6008636,18.317976 C44.8899545,17.827016 44.3681364,17.4725093 44.6008636,16.9720293 C44.8899545,16.2829627 45.5613182,16.3083493 46.1304091,14.7212293 C47.9222273,9.61624267 46.5526818,8.969336 41.5490455,7.52410933 C41.4954091,7.57488267 41.0367727,8.42080267 41.0367727,8.42080267 C40.1167727,8.546376 39.4840455,7.52410933 39.5045,7.52410933 C38.8208636,7.73264267 38.6772273,8.802056 38.4872273,8.87368267 C37.3872273,9.20642933 37.3413182,8.05450933 35.9349545,8.42080267 L35.9349545,9.32202933 C35.6013182,9.375976 32.3645,9.771736 32.3645,9.771736 C32.2404091,9.81072267 31.5140455,9.939016 31.3454091,10.0840827 C30.5149545,10.6852027 29.7990455,11.417336 28.7976818,12.022536 C28.7976818,12.022536 27.4181364,11.8788293 26.9281364,12.518936 L26.8917727,12.483576 C26.8917727,12.483576 26.1845,12.2791227 25.7922273,12.588296 C25.4054091,12.8974693 25.4372273,13.4809093 25.2254091,13.8603493 C25.1763182,13.9378693 25.1640455,14.012216 25.1595,14.078856 L24.1822273,14.3445093 C24.2395,14.3445093 23.1104091,14.5770693 24.3276818,15.9329893 C25.2872273,15.5417627 27.0390455,14.5539493 27.8890455,14.413416 C28.6335909,14.2742427 30.6304091,15.4533627 31.3454091,15.1677627 C31.3540455,15.154616 31.3454091,13.8757627 31.3454091,13.8172827 C31.6813182,13.7515493 33.5308636,13.9310693 33.8945,13.8172827 C34.4431364,13.6214427 35.9031364,12.172136 36.4408636,12.022536 C37.2567727,11.770936 37.9795,12.4695227 37.9795,12.4695227 C38.6140455,12.483576 40.3199545,11.8516293 41.5490455,11.5741893 C41.0517727,10.617656 42.9145,11.9495493 43.0745,12.022536 C42.7722273,12.495816 43.2972273,12.852136 43.0745,13.3684827 C42.9145,13.710296 41.7863182,13.9310693 41.5490455,14.2656293 C41.1972273,14.7212293 41.8158636,15.115176 41.5490455,15.6192827 L40.5254091,15.6192827 C40.3681364,16.1592027 40.3199545,16.517336 41.0367727,16.517336 C41.0367727,16.517336 40.2708636,17.5042427 40.0117727,18.317976 C39.7954091,18.2508827 38.9458636,17.4725093 38.4872273,17.8700827 C38.4872273,17.8700827 37.8508636,19.7944827 37.4635909,20.1190693 L36.4408636,20.1190693 C35.5376818,20.3860827 31.0931364,24.6184027 30.3263182,25.5182693 L29.5740455,26.2635493 C29.4163182,26.2635493 28.9081364,26.320216 28.7976818,26.4240293 C28.3940455,26.7291227 28.6849545,27.8819493 28.2863182,28.2156027 C27.7463182,28.6381093 25.2254091,29.4513893 24.7163182,30.0171493 C24.4458636,30.3004827 24.9081364,31.001336 24.7163182,31.368536 L23.6949545,31.368536 C23.4122273,32.1854427 23.6204091,32.4656027 23.1854091,33.166456 C22.9954091,33.0812293 22.3626818,32.5630693 22.1681364,32.7131227 C22.3626818,33.0558427 22.1681364,34.1261627 22.1681364,34.5192027 C22.9776818,34.909976 24.2695,35.331576 25.2254091,35.8696827 C25.2754091,35.813016 25.7054091,34.5609093 25.7354091,34.5192027 C25.8795,34.5192027 27.1558636,34.6008027 27.2667727,34.5192027 C27.6535909,34.166056 27.3672273,33.237176 27.8017727,32.890376 C28.0526818,32.6718693 28.9245,32.3785627 29.3026818,32.2684027 C30.9172273,31.7049093 31.5335909,29.0928027 32.8785909,28.2156027 C33.7058636,27.6580027 34.4240455,28.2156027 35.4217727,27.7654427 C35.8867727,27.541496 35.9663182,26.676536 36.4408636,26.4240293 C37.2785909,25.951656 38.6772273,25.8161093 39.5045,25.5182693 L39.5045,25.0672027 C40.7513182,24.7893093 40.1958636,25.7725893 41.0367727,25.5182693 C41.2567727,25.4448293 41.8317727,24.2090427 42.0572273,24.171416 C43.1572273,23.8740293 43.5863182,24.760296 44.0931364,24.6184027 L44.0931364,23.7162693 C45.7726818,23.507736 46.6795,23.507736 48.6840455,23.267016 C48.8585909,22.6627227 48.2222273,22.323176 49.1935909,22.369416 C49.4045,22.369416 50.9813182,23.6319493 51.2331364,23.7162693 C51.4245,23.0566693 51.7095,25.3904293 51.7445,25.5182693 C51.6140455,25.5595227 50.7235909,25.951656 50.7235909,25.9661627 L50.7235909,26.8660293 C51.3590455,26.827496 51.4735909,28.035176 51.2331364,28.6680293 L50.2122273,28.6680293 C49.8990455,29.158536 50.4854091,29.4935493 50.2122273,30.0171493 L49.1935909,30.0171493 C49.0972273,30.309096 49.0163182,30.562056 48.9413182,30.804136 L48.8649545,30.828616 L48.7958636,31.356296 C48.7281364,31.6301093 48.6704091,31.901656 48.5949545,32.196776 L47.9895,32.982856 L46.9599545,33.617976 L46.1304091,33.617976 C45.9031364,33.9325893 46.1222273,34.5940027 46.1581364,35.0808827 L45.4372273,35.9141093 L44.8208636,37.1956827 L43.4181364,37.4187227 L42.2449545,39.1713093 L41.0431364,38.6848827 L40.9285909,40.446536 C40.8476818,40.385336 40.7267727,40.351336 40.5254091,40.3694693 C40.5254091,40.3694693 40.5163182,40.4714693 40.5199545,40.6333093 L39.3285909,41.0295227 L38.3704091,41.954776 L37.4831364,42.9865627 L36.4095,43.0994427 L36.4776818,43.7925893 L35.6740455,44.6824827 L35.3895,44.0346693 L34.6904091,45.4191493 L35.6126818,45.693416 L36.4095,45.6993093 L37.2190455,45.1036293 L38.8108636,43.6701893 L40.0654091,43.2096027 L40.1763182,41.9896827 L41.7267727,42.200936 L41.7917727,42.183256 C42.2235909,42.2072827 42.8035909,42.0862427 43.5863182,41.7172293 C43.6022273,41.7009093 43.5863182,40.4202427 43.5863182,40.3694693 C44.6204091,39.834536 45.5613182,39.6069627 46.6499545,39.0167227 C46.5849545,38.8680293 46.4995,38.6848827 46.3917727,38.4822427 L47.3626818,37.9722427 L48.6013182,37.1666693 L49.6999545,36.3334427 L50.0576818,34.9027227 L50.3485909,34.5504827 C50.8281364,34.302056 51.1972273,34.117096 51.2331364,34.0663227 C51.2604091,34.024616 51.2108636,33.8700293 51.1340455,33.658776 L52.7635909,33.0517627 L51.8658636,31.724856 C52.2385909,31.8463493 52.5563182,32.2026693 52.7635909,32.2684027 C53.2595,31.1028827 53.2595,30.4269627 53.7826818,29.1186427 C53.9613182,29.1186427 55.2335909,29.2192827 55.3131364,29.1186427 C52.9535909,27.8248293 59.0635909,21.581976 51.2331364,19.6689093" id="Fill-13" fill="#FFFFFF"></path>
                    <path d="M54.177,85.6444133 C54.2379091,85.34068 54.217,85.0256133 54.0942727,84.74228 C53.9333636,84.3320133 53.8397273,84.1932933 53.4156364,84.10036 C53.0574545,84.0169467 52.9374545,84.0069733 52.6247273,84.23228 C51.6897273,84.8977733 49.3660909,86.3887867 48.3915455,87.0356933 C45.8392727,88.73252 43.0065455,90.27884 42.1592727,89.1314533 C41.6497273,88.4432933 41.8442727,86.3398267 42.4751818,84.8674 C44.0229091,81.2765467 46.6565455,78.2845467 49.3956364,76.72508 C49.897,76.5201733 50.1351818,75.9761733 49.9738182,75.4008933 C49.8629091,75.0418533 49.6097273,74.7499067 49.2733636,74.6107333 C49.0051818,74.4964933 48.7056364,74.4964933 48.4424545,74.59396 C44.3110909,76.4263333 41.6210909,80.7012667 40.3188182,83.5001467 C39.5479091,85.1643333 38.4642727,88.38028 39.7715455,91.17372 L40.0242727,91.6288667 C40.4251818,92.2825733 41.5751818,92.5740667 41.8515455,92.5971867 C44.2379091,92.7599333 47.3251818,90.8631867 49.8933636,89.17724 C50.8733636,88.5280667 52.6406364,87.2192933 53.6401818,86.67756 L54.0147273,86.1059067 L54.177,85.6444133 Z" id="Fill-15" fill="#FFFFFF"></path>
                    <g id="Group-19" transform="translate(0.000000, 73.440000)">
                        <mask id="mask-2" fill="white">
                            <use xlink:href="#path-1"></use>
                        </mask>
                        <g id="Clip-18"></g>
                        <path d="M4.73409091,7.09820267 L4.63090909,4.65972267 C6.81181818,3.39854933 8.81727273,2.77748267 10.6213636,2.828256 C11.7659091,2.85318933 11.7968182,3.17324267 11.8209091,3.40716267 C11.9172727,4.36052267 11.1631818,4.98702933 10.3545455,5.65206933 L10.0295455,5.92996267 C8.56545455,7.23828267 6.82590909,8.65948267 4.82454545,9.57476267 C4.79863636,8.745616 4.76590909,7.90830933 4.73409091,7.09820267 M16.385,8.151296 L16.3690909,8.091456 L16.3459091,8.03342933 L16.1327273,7.50438933 L16.1145455,7.483536 L16.1068182,7.460416 C15.9531818,7.168016 15.6868182,6.938176 15.3613636,6.82484267 L15.0290909,6.723296 L15.0077273,6.71604267 L14.9836364,6.70742933 C14.4345455,6.56100267 13.8777273,6.49390933 13.2940909,6.49390933 C14.1504545,5.44988267 14.7936364,4.10076267 14.2931818,2.47964267 C13.8095455,0.917909333 12.4768182,-0.0513173333 11.0722727,0.120496 C9.18954545,0.344896 6.71545455,1.16044267 4.42863636,2.30102933 C4.39454545,2.193136 4.35409091,2.08116267 4.31545455,1.97190933 C4.265,1.65094933 4.08090909,1.37396267 3.81272727,1.209856 C3.57954545,1.065696 3.29909091,1.02172267 3.03590909,1.07068267 C2.47818182,1.16542933 2.09318182,1.66726933 2.12909091,2.24390933 C2.11863636,2.68726933 2.09909091,3.13108267 2.09318182,3.61932267 C1.465,4.027776 0.913636364,4.43260267 0.436363636,4.83380267 C0.05,5.12982933 -0.103181818,5.66068267 0.0718181818,6.12988267 C0.199090909,6.46580267 0.466818182,6.71604267 0.81,6.80444267 C1.11818182,6.88286933 1.42727273,6.82484267 1.69409091,6.658016 L1.71681818,6.64622933 L1.73272727,6.62628267 C1.84727273,6.538336 1.96636364,6.44676267 2.08090909,6.36108267 L2.08909091,7.335296 C2.10272727,9.890736 2.12590909,12.5336693 1.83136364,15.0999893 C1.66181818,15.876096 2.02,16.6626293 2.675,16.955936 L2.69090909,16.9595627 L2.70136364,16.9645493 C3.04727273,17.1037227 3.41772727,17.0846827 3.76818182,16.9595627 C4.51318182,16.678496 4.60363636,15.564656 4.60363636,15.564656 C4.74636364,14.5020427 4.82454545,13.3678027 4.84863636,12.093936 L4.86954545,12.0853227 L4.90954545,12.0635627 L5.52772727,11.7276427 C9.52,9.53396267 12.9886364,8.52438933 13.8904545,8.884336 C13.8963636,9.07654933 13.8277273,9.505856 13.26,10.1319093 C10.3431818,13.3678027 7.53272727,15.6702827 3.83772727,17.8408427 C2.96454545,18.348576 2.94318182,18.9125227 3.07863636,19.3014827 C3.21409091,19.7122027 3.51863636,20.025456 3.91090909,20.141056 C4.25681818,20.249856 4.62318182,20.2054293 4.93136364,20.0277227 C8.29181818,18.1237227 12.1731818,15.650336 15.3640909,11.7543893 C16.2209091,10.7248693 16.5954545,9.384816 16.385,8.151296" id="Fill-17" fill="#FFFFFF" mask="url(#mask-2)"></path>
                    </g>
                    <g id="Group-22" transform="translate(13.181818, 74.800000)">
                        <mask id="mask-4" fill="white">
                            <use xlink:href="#path-3"></use>
                        </mask>
                        <g id="Clip-21"></g>
                        <path d="M8.85209091,7.568808 C9.17118182,8.16675467 9.438,8.90070133 9.763,9.52494133 C8.53936364,10.125608 7.313,10.7493947 6.03981818,11.4003813 C6.19390909,10.7901947 7.15845455,6.88654133 7.65209091,4.91771467 C7.88936364,5.375128 8.61027273,7.11683467 8.85209091,7.568808 M18.9916364,7.33851467 C18.9661818,7.22246133 18.9398182,7.11683467 18.9270909,7.02571467 L18.9270909,7.01846133 L18.9170909,7.01846133 C18.8893636,6.91283467 18.8893636,6.82171467 18.8893636,6.73150133 C18.8893636,6.52750133 18.8893636,6.429128 18.5470909,6.211528 C18.3911818,6.11950133 17.6820909,6.286328 17.6820909,6.286328 C15.8411818,7.05654133 14.1139091,7.790488 12.1875455,8.56251467 C11.2666364,6.925528 9.80527273,3.805688 8.87118182,2.34731467 C8.76254545,2.15147467 8.60345455,2.003688 8.40845455,1.89942133 C8.43072727,1.81555467 8.44890909,1.73214133 8.46163636,1.64238133 C8.54981818,1.09203467 8.27936364,0.567981333 7.78481818,0.373954667 L7.74845455,0.358088 L7.71981818,0.345848 C7.44390909,0.266968 7.15209091,0.290994667 6.88663636,0.419741333 C6.58890909,0.567981333 6.38709091,0.839981333 6.30709091,1.17454133 C5.55981818,4.42675467 4.33845455,8.414728 3.20618182,11.618888 L2.39936364,13.3252347 L0.871181818,14.155288 L0.849818182,14.1666213 C0.857545455,14.1666213 0.849818182,14.1711547 0.849818182,14.1711547 C0.422545455,14.424568 0.210272727,14.9504347 0.343454545,15.4658747 L0.348,15.4708613 L0.350272727,15.490808 C0.458909091,15.8194747 0.698454545,16.068808 1.02027273,16.181688 L1.03845455,16.181688 C0.985272727,16.527128 0.348,18.2316613 0.551636364,18.511368 C0.759818182,18.829608 1.10118182,19.0263547 1.47527273,19.033608 C1.82572727,19.0599013 2.45981818,19.0494747 2.933,18.1296613 L2.933,18.1201413 L2.93709091,18.106088 C3.16072727,17.5629947 4.10618182,15.652648 4.398,14.9826213 C5.66481818,14.3914747 6.93072727,13.7735813 8.15481818,13.1738213 L10.8766364,11.8505413 C11.2570909,12.7322747 13.0448182,17.5149413 13.4157273,17.708968 C13.6993636,17.8513147 14.0416364,17.8916613 14.3552727,17.793288 C14.3552727,17.793288 14.5511818,17.7420613 14.5970909,17.7162213 C16.3770909,16.7587813 15.4611818,15.490808 15.4611818,15.490808 L14.3793636,13.207368 L14.2511818,12.934008 C13.9648182,12.2191013 13.6548182,11.497848 13.2802727,10.725368 C15.233,9.84318133 16.8884545,9.161368 18.4861818,8.59515467 L18.4070909,8.622808 C19.2752727,8.39886133 19.0598182,7.59691467 18.9916364,7.33851467" id="Fill-20" fill="#FFFFFF" mask="url(#mask-4)"></path>
                    </g>
                    <path d="M32.2487273,79.0409787 C35.0323636,77.965672 37.4496364,77.447512 38.3141818,77.4824187 C37.7337273,78.343752 34.751,80.4481253 32.4250909,81.5442853 C32.3850909,80.7314587 32.3341818,79.890072 32.2487273,79.0409787 M41.9923636,89.8566053 L41.2346364,87.6456987 C38.9600909,86.4203387 36.6246364,85.146472 34.4037273,83.653192 C36.4050909,82.5429787 38.3964545,81.3226053 39.8496364,79.1846853 L39.8519091,79.1656453 L39.8596364,79.1620187 C39.981,78.9562053 41.0214545,77.1587387 40.3023636,75.980072 C40.0932727,75.6328187 39.6341818,75.1849253 38.6814545,75.0666053 C36.0569091,74.735672 30.9964545,76.4352187 27.6264545,78.7648987 C27.1573636,79.0736187 27.0623636,79.677912 27.2232727,80.1013253 C27.356,80.4363387 27.6196364,80.6779653 27.9541818,80.7613787 C28.2637273,80.844792 28.5900909,80.789032 28.8455455,80.6199387 L28.8155455,80.638072 C29.1741818,80.4322587 29.5769091,80.2173787 30.0096364,80.0011387 C30.1446364,82.986792 30.3287273,88.3891653 30.3091818,91.3730053 C30.2469091,92.0434853 30.6655455,92.6473253 31.2896364,92.788312 C31.596,92.8526853 31.8891818,92.7783387 32.1619091,92.644152 C33.0591818,92.2080453 33.0050909,91.180792 32.9746364,90.9119653 C32.8623636,89.970392 32.6664545,86.6420187 32.616,85.7657253 C33.4596364,86.2104453 34.8437273,86.949832 37.1423636,88.153432 C38.9964545,89.1344453 40.9182727,90.1422053 41.0982727,90.2555387 C40.8464545,90.1072987 41.2091818,90.3135653 41.2091818,90.3135653 L41.8146364,90.5556453 C41.8146364,90.5556453 42.3687273,90.6440453 42.6687273,90.499432 C42.8600909,90.413752 42.6296364,90.0633253 41.9923636,89.8566053" id="Fill-23" fill="#FFFFFF"></path>
                    <path d="M68.117,86.4306747 C68.0960909,86.0063547 67.8951818,85.639608 67.5788182,85.4211013 C67.3315455,85.2542747 67.0329091,85.0620613 66.7215455,85.1042213 L66.6929091,85.1042213 L66.6583636,85.1182747 C63.6115455,86.017688 60.417,87.1011547 57.4383636,88.2091013 C56.4160909,88.5862747 55.3833636,88.8555547 54.3510909,89.2213947 L54.492,85.677688 C56.1160909,85.0135547 57.7688182,84.4391813 59.3829091,83.885208 C60.7729091,83.417368 63.5883636,82.2037947 63.5883636,82.2037947 C64.0315455,81.876488 64.2488182,81.2554213 64.0901818,80.678328 L64.0797273,80.6692613 L64.0797273,80.662008 C63.9592727,80.2381413 63.6629091,79.9108347 63.2729091,79.778008 C62.9533636,79.6628613 62.6006364,79.6832613 62.2929091,79.839208 C60.9774545,80.504248 59.6033636,81.1044613 58.2760909,81.6756613 C57.0556364,82.2037947 55.7974545,82.746888 54.5674545,83.3579813 C54.5924545,82.4236613 54.6097273,81.5315013 54.6179091,80.662008 C57.127,79.797048 59.8547273,79.0277413 62.8901818,78.3178213 C62.9201818,78.322808 63.0497273,78.2756613 63.0497273,78.2756613 C65.032,77.7334747 64.4142727,76.0973947 64.0979091,75.674888 C63.8242727,75.3503013 63.2851818,75.1041413 62.6992727,75.287288 C61.7365455,75.579688 60.7701818,75.853048 59.8142727,76.1245947 C58.0929091,76.601048 56.3129091,77.0951813 54.5674545,77.7565947 C54.5092727,77.584328 54.4129091,77.4256613 54.272,77.3023547 C54.0760909,77.1282747 53.8210909,77.0317147 53.5579091,77.0285413 C52.9315455,77.014488 52.442,77.4855013 52.4201818,78.1414747 L52.4201818,78.113368 L52.3651818,78.7067813 C51.6165455,79.0712613 51.2688182,79.261208 50.6001818,79.6832613 L50.3056364,79.850088 C49.8274545,80.092168 49.602,80.662008 49.7401818,81.1942213 C49.8274545,81.5491813 50.0801818,81.8239013 50.4188182,81.9440347 C50.7010909,82.046488 51.0292727,82.036968 51.3065455,81.899608 L51.2638182,81.9168347 C51.5283636,81.8184613 51.8097273,81.702408 52.1142727,81.5804613 C52.0274545,82.571448 51.9401818,83.7038747 51.8579091,84.8476347 C51.4642727,85.1382213 51.2947273,85.6863013 51.4642727,86.168648 C51.5201818,86.353608 51.6188182,86.5068347 51.7560909,86.633768 C51.6797273,88.060408 51.4410909,90.8910213 51.4883636,91.1467013 C51.5383636,91.503928 51.4379091,92.0062213 52.0479091,92.287288 C52.982,92.7274747 59.0879091,90.3257147 61.7524545,89.3664613 C63.3351818,88.797528 65.087,88.2091013 66.7010909,87.6569413 L67.1801818,87.3418747 L67.207,87.3418747 C67.3088182,87.346408 67.6210909,87.366808 67.8765455,87.1650747 C68.1488182,86.935688 68.1329091,86.646008 68.117,86.4306747" id="Fill-25" fill="#FFFFFF"></path>
                    <g id="Group-29" transform="translate(66.363636, 75.706667)">
                        <mask id="mask-6" fill="white">
                            <use xlink:href="#path-5"></use>
                        </mask>
                        <g id="Clip-28"></g>
                        <path d="M13.3509091,9.693808 C13.2581818,9.22687467 12.6540909,8.25266133 11.5586364,8.699648 C10.4695455,9.14255467 8.85909091,9.97079467 7.62863636,10.5537813 C6.23,11.217008 4.91363636,11.8734347 3.28681818,12.537568 C2.99863636,10.7931413 2.93909091,8.96666133 2.88409091,7.19050133 C2.82,5.12375467 2.92454545,1.518848 2.74318182,0.936768 C2.63136364,0.600394667 2.68,0.350608 2.19727273,0.142528 C1.92363636,0.0251146667 1.22090909,-0.031552 0.936818182,0.0532213333 C0.395454545,0.199648 0.0577272727,0.718261333 0.100454545,1.28674133 L0.100454545,3.87935467 C0.100454545,7.45615467 0.0922727273,11.159888 0.585454545,14.7262613 L0.585454545,14.7389547 L0.595,14.753008 L0.612272727,14.8722347 L0.623636364,14.923008 L0.636818182,14.9533813 C0.671363636,15.054928 0.703636364,15.1451413 0.748181818,15.229008 L0.752727273,15.239888 L0.752727273,15.2448747 C0.857272727,15.4402613 0.974090909,15.593488 1.13863636,15.7163413 C1.86,16.242208 2.78590909,15.9779147 2.78590909,15.9779147 C5.15272727,15.2081547 7.36090909,14.083888 9.48545455,13.009488 C10.4572727,12.5085547 11.0536364,12.2515147 12.2313636,11.551568 L12.4968182,11.4173813 C13.2936364,10.9672213 13.4736364,10.3212213 13.3509091,9.693808" id="Fill-27" fill="#FFFFFF" mask="url(#mask-6)"></path>
                    </g>
                </g>
            </g>
        </g>
    </g>
</svg>